<svg id="Layer_1" xmlns="http://www.w3.org/2000/svg" xmlns:xlink="http://www.w3.org/1999/xlink" viewBox="0 0 339.9 108.3"><style>.st0{fill:#231F20;} .st1{clip-path:url(#SVGID_2_);} .st2{fill:#FFFFFF;} .st3{clip-path:url(#SVGID_4_);} .st4{fill:none;} .st5{fill:#EFF8FA;} .st6{clip-path:url(#SVGID_6_);} .st7{fill:#D92929;} .st8{opacity:0.21;fill:#231F20;enable-background:new ;}</style><title>Winter-Xmas</title><g id="Group_10354-6"><g id="Group_10351-6"><path id="Path_18589-6" class="st0" d="M205.6 80c-.2-.2-.3 0-.2.2l.2-.2m28.8-13.5c.2.1-.2 0-.2.1s.3.2.3.2-.2.3-.2.5.2.4-.1.5c.1.1-.1.5-.1.7-.2.2 0 .3-.2.6l-.2.9h-.5c-.2.1-.2.4-.3.5v.4c-.3.8-.7 1.5-1.1 2.3h-.2c0 .1-.1.3-.2.3 0 .2-.3.2-.3.3-.5.8-1.2 1.6-1.9 2.2-.1 0-.1.2-.2.2-.5.2-.8.8-1.4 1.1v.1c-.6.2-1.2.3-1.8.3-.8-.1-1.7-.2-2.4-.5-.3-.5-.6-.7-.7-1-.1-.1-.2-.1-.3-.1 0-.2 0-.4-.2-.5l-.2-.7c-.1-.4-.2-.9-.2-1.3 0-.1 0-.2-.1-.2 0-.2.2-.3 0-.5.2-.1 0-.7.1-.8s-.1-.4-.1-.6.1-.2.1-.2v-.8c0-.1 0-.1.1-.2 0-.3 0-.6.1-.9 0-.6.1-1.3.2-1.9.1-.2-.2-.1-.1-.2 0-.3.1-.4.2-.5-.2-.3.2-.9 0-1.3.2-.1.4-.4.3-.6.1 0 .1-.2.2-.3.1-.3.2-.7.2-1.1 0-.1.1-.1.2-.1 0-.3 0-.7.3-.6.1.1-.1.2-.1.4s.2.2.2.3c.1-.1 0-.2.1-.4 0 0 .1.1.1-.1 0-.1.1-.1.1-.2v-.2c.2-.1.2 0 .2-.1.1-.2 0-.7.3-.7 0-.3 0-.5.1-.8 0 0 .1-.1.2-.1 0-.2 0-.4.2-.5 0-.5.3-.8.6-1.3 0 0 .2 0 .2-.1.2 0 .3 0 .4.1.3 0 .4 0 .5-.1.8.3 1.8.1 2.4-.6.3 0 .5-.2.7-.2.2-.5.7-1 .4-1.9.3-.1.7-.4.7 0 .1.2.1.2.2.2.1.2.5.2.6.5.2.2.3.5.3.7.1.4 0 .8.2 1.1l.3.3c0 .3.1.6.3.9.1.5.5.6.5 1.1 0 .1.1 0 .1.1-.1.5.4.7.2 1 0 .2.1.2.2.4.2.3.3.6.2.9 0 .1.1.2.2.2-.2.4.2 1 0 1.2 0 .1.1.1.1.2.2.5.4.9.2 1.4m-48.3 14.4c-.4 0-.5-.2-.6-.2-.4.2-1.1.2-1.3.6h-2c-.1 0-.1.2-.2.2-.3-.2-.6.1-.9.2-.2-.3-.7-.1-.9 0 .1.2-.1.3-.1.5-.1 0-.2 0-.2.1-.2.4-.6.7-.9 1.1-.3.3-.5.6-.6.9-.2 0-.5-.1-.6-.2-.1 0-.1.2-.2.2-.2-.2-.4-.6-1-.5-.2.2-.6.6-.6.9-.3-.2-1.2-.3-1.5-.1-.6 0-.6.6-.8.7-.1.2-.1.5-.1.7-.4 0-.4.3-.4.6-.2.2-.2.7-.2.8.2.1.1.6.2.7 0 .3.4.4.4.9-.1.1-.1.2-.2.2.2.3.5.6.7.8-.1.1-.1.2-.1.3.6.3 0 .9 0 1.5-.1 0-.1 0-.2.1.1.4-.2.5-.2 1 .2.2.4.4.7.6 0 .2.2.3.2.7.3.2.5.9 1.1 1.1-.1.2 0 .2.1.2.2-.1.2 0 .6 0 .1.2.2.3.3.6.1.2.1.4.2.6.7.1.9.7 1.5 1l.5-.4c.4-.1.5-.3 1-.2.4.3.2 1.5.9 1.7.2-.5.4-.7.8-.9 0-.4.3-.7.6-.8.1-.2.3-.3.5-.5.2-.3.4-.5.7-.7 0-.2.1-.2.1-.3.2 0 .2-.2.3-.2.4 0 .6-.3.8-.4.3-.2.4-.6.2-.9.4-.2.5-.7.7-.8.1-.5.5-.7.7-1 0-.2.1-.5.2-.5.1-.2.1-.4.2-.5.2-.4.4-.9.6-1.2 0-.2.1-.4.2-.5 0-.1-.2 0-.2-.2.2-.4.4-.8.7-1.1.1-.6.4-.7.6-1.1-.2-.2-.2-.2-.2-.3-.1-.3.3-.4.2-.9.1 0 .1-.1.2-.1-.2-.2.2-.3.1-.7.3-.2.2-1 .3-1.5.2-.1.2-.2.4-.2v-.7c.2 0 .3-.1.3-.4-.6-.1-.7-.5-1-.7-.4 0-.8-.1-1.1-.2-.2-.1-.4 0-.3-.1-.2-.1-.1.1-.2.1-.1-.2-.3-.2-.5-.2-.3.2-.7.1-.7-.1l.2-.3zm-50.2-27.4c.1.2.1.4.1.6-.2.1-.2.7-.2 1 0 .1 0 .1-.1.1-.2.9 0 1.8-.2 2.6-.2 0-.1.2-.2.2 0 .6 0 1.2.2 1.7.2.1.3.3.2.6h.1c.1.2 0 .5-.1.7l.7 2c.2.1.2.2.2.6.2.2.3.8.6 1.1.2.9 1.1 1.2 1.3 2 .1.1.2.1.2.2.5.7 1 1.3 1.6 1.9.2.1.3.2.3.4.3.2.6.3.6.6.2-.1.2.1.3 0 0 .2 0 .3.2.3.3.5.9.5 1.2.9.1 0 .1.2.2.1.2.3.6.4.8.7.5 0 .6.3 1 .3 0 .2.1.2.1.2.1.1.3.1.4.1 0 .1 0 .2.1.2s.3 0 .4.1.1.2.1.1c.2.1.4.1.5.2.6 0 .7.3 1.1.3-.1.2.2.2.2.2.5.1.7.3 1.3.4.1.2.3.2.4.5.3 0 .5.1.7.2.6.1.9.4 1.5.5.2.2.5 0 .7.2.3.2.6.3 1 .2v.1c.2 0 .5.1.8.1.1.3.5.2.6.3.1 0 .1.2.1.2.2.1.4.1.4.2.2-.1.2 0 .2 0 .2.2.6.3.7.7.2.1.2.2.2.2l.7.5c.1.3.3.4.6.6l.2.3c0 .2.2.4.2.6v.1c-.2.2-.3.5-.4.8-.6.2-.6.7-1.1.9 0 .2-.1.2-.2.3-.4.1-.7.4-1 .7l-.6.2c-.1 0-.1.2-.2.2-.4.4-.9.6-1.4.8 0 .2-.4.1-.4.2-.2 0-.4.2-.7.1-.2.3-.8.2-1.1.4s-.8.2-1 .3c-.2 0-.7.1-1.1.1-.3-.1-.7-.1-1.1-.1-.4-.2-.8-.2-1.1 0-.4 0-.9.1-1.3.2-.1.1-.2.1-.3.1-.2.1-.2.2-.3.2-.4.1-.7 0-1.1-.2-.3-.1-.7-.1-1-.1-.2-.1-.2-.2-.2-.2-.5 0-1 0-1.5-.2-.6-.1-1.2-.2-1.8-.4-.2.1-.7.1-.7-.2-.3.1-.6-.2-1-.2-.2-.1-.3.1-.7 0 .2-.1.2-.2.2-.3-.5-.2-.8-.6-1.4-.8 0 .4.2.6.3.8.2.2.6.3.7.7-.2.1-.5.1-.7.1-.1-.3-.6-.4-.9-.3v.6h-1.5c0 .1-.1.3-.2.3-.6 0-.7.4-1.1.7-.4 0-.6.1-.9-.1-.2.1-.2.4-.3.6h-.7c-.1.3.1.4.2.6-.1.3-.5.3-.9.5 0 .2 0 .4.2.5-.3.2.1.6.1.8 0 .1-.3.1-.3.2 0 .5.6.2.6.7 0 .1-.2 0-.2 0 0 .2.2.2.2.4.6 0 .6.6 1.2.5.2.2.5.2.6.3.7 0 1 .6 1.6.5 0 .2.4.2.5.3.2.1.5.3.6.2.2.3.4.7.6.8.2.2.5.2.6.5.4 0 .6-.2 1.1-.2.1.4.3.4.8.5 0 .1.1.1.1.2.2 0 .5.3 1 .3.1.1.2 0 .2 0s.2.2.3.1c0 .2.2.2.3.3s.1-.1.2-.1c.2.4.5.1.8.1.4 0 .7.1 1.1.3.5 0 1 .2 1.5.5.4 0 .9.1 1.3.2.1 0 .2.2.3 0l.2.3c.2 0 .3-.1.5-.1l.3.2c.2.2.6.1.8.2.1 0 .2.2.2.2s.1-.2.2-.2c.3.2.7.2 1 .2.3.2.8 0 1 .2.3 0 .2-.1.4-.1v.3c.2 0 .2.1.2.1h.8c.1 0 .1-.1.2-.1.5 0 .9-.1 1.4-.2.6.2 1.2.3 1.9.2 0 0 .1 0 .1.1.4 0 .8-.1 1.1-.1.1-.2.1-.2.2-.2.4.1.7 0 1-.2l1.1-.2c.1 0 .2-.1.2-.1h.2c0-.4.5-.5.6-.7.1.2.2.2.2.2.2-.3.4-.5.7-.6.1 0 .1.1.2.1.3-.3.6-.3.7-.7.2-.1.4-.1.7-.1.1-.4.4-.4.5-.7.6-.3.8-.7 1.5-.9 0-.2.1-.2.2-.3s.1-.2.2-.2c-.1-.1.1-.1.1-.2.4-.2.6-.7.8-.8s.1-.2.3-.2c.2-.2.3-.2.4-.4s-.1-.2 0-.3c.2-.3.4-.6.7-.7.2-.2.2-.4.4-.4.2-.3.3-.8.7-1 0-.2.1-.2.1-.4.2 0 .3-.1.4-.3v-.2c.2-.1.5-.2.6-.4 0-.5.5-.6.5-1.2.4-.1.6-.4.6-1 .1 0 .2-.1.3-.2 0-.3.1-.6.3-.7-.1-.6.4-1.1.4-1.6 0-.2-.1-.6-.1-.7s0-.8-.2-1c-.1-.1 0-.1 0-.2-.2-.3-.3-.7-.4-1.1-.2 0-.2-.2-.2-.2 0-.2-.1-.4-.2-.5-.2-.1-.2-.2-.5-.6-.1-.2-.2-.3-.5-.5-.1-.1-.2-.3-.2-.3-.2-.4-.6-.4-.6-.7-.2 0-.2-.2-.3-.2-.1-.3-.4-.4-.6-.7-.8-.4-1.5-1-2.2-1.6-.1-.2-.2-.2-.4-.2s-.1-.1-.2-.1c-.1-.2-.3-.2-.3-.6-.6-.2-.8-.7-1.5-.7-.1-.2-.3-.4-.6-.5 0-.2-.1-.2-.1-.2-.3 0-.4-.1-.4-.2-.4 0-.8-.2-1-.6-.3-.2-.7-.3-1.1-.3 0 0 0-.1-.1-.1-.3 0-.6-.1-.6-.3-.2 0-.4-.1-.6-.2-.3.1-.5-.2-.7-.2h-.3c-.5-.2-1-.3-1.5-.3l-.2-.3c-.4 0-.6-.2-1.2-.2-.1 0-.1-.1-.2-.1-.4 0-.5-.2-.8-.2-.2-.2-.5-.3-.7-.2 0-.2-.2-.2-.2-.2s-.3-.1-.5-.1c-.1-.2-.4-.2-.8-.2 0-.1-.1 0-.2 0s-.2-.2-.4-.2l-.6-.4c-.4-.1-.8-.3-1.1-.6-.4-.2-.7-.6-1-.7l-.6-1.1c-.2 0-.2-.2-.3-.4 0-.2-.1-.4-.3-.6-.1-.2-.1-.5-.2-.6.1-.3-.2-.6-.3-.8-.1-.3-.1-.7-.1-1-.2-.1-.1-.3-.1-.7.2-.3.1-1.1.2-1.5.1 0 .2-.2.3-.2.1-.3.6-.5.6-1l.2-.2c0-.1.2-.1.2-.2.2-.2.3-.4.5-.6.6 0 .8-.4 1-.9.1 0 .2-.1.2-.1s.2-.2.3-.2.3-.4.5-.6c.2 0 .4-.2.6-.2l.2-.2c.3.1.6-.3.8-.5.1 0 .3-.1.3-.2.5-.2 1-.3 1.5-.3.1 0 .1-.2.2-.3.2.2.6 0 .8-.2 1.1-.1 2.1-.1 3.2 0 .1 0 .1.1.2.1.5 0 1.1-.2 1.5.1 1.1-.2 1.4.5 2.2.4.1 0 0 .2.2.2.4 0 .8.2 1.2.3.5 0 .9.2 1.3.3 0 0 .1.1.2.1.3 0 .7 0 1 .1h.7c.2 0 .3.2.6.2.1-.1 0-.3.1-.6.2-.1.5-.2.6-.3l.7-.2h.5s0-.1.1-.1c-.1-.3-.3-.3-.3-.5-.1-.6.9 0 1.2-.2-.2-.2-.6-.1-.6-.3.1-.2 0-.2-.2-.3.2-.2.2-.2.2-.4.1-.2.2-.2.2-.2-.2-.3-1.4-.7-.8-1.3-.2-.1-.3-.3-.3-.5-.2-.1-.6-.2-.6-.4-.3.1-.3-.2-.9-.2-.1-.2-.2-.2-.2-.3-.4-.1-.8-.2-1-.5-.2 0-.4-.1-.6-.2-.2 0-.2-.2-.5-.2 0-.2-.3-.1-.1-.2-.6 0-.7-.3-1.3-.4-.1-.2-.3-.4-.5-.3-.2-.2-.7-.1-.8-.3-.2.1-.6-.2-.7-.4-.2.2-.3 0-.6-.1-.6 0-.7-.2-1.3-.3-.2-.2-.6-.2-1.1-.3 0-.2-.3-.2-.4-.2-.2 0-.3-.1-.5-.2s-.1.1-.2.1c-.3-.2-1 0-1.2-.3-.4-.1-.9.1-1.1-.2-.4 0-.8-.1-1.1-.3.2-.1-.1-.1-.1-.2-.2 0-.3.2-.5.4-.1-.2 0-.3-.1-.3h-2c-.8-.2-2.3.3-2.9-.2 0 .1-.2.1-.4.1-.1-.1-.3-.2-.5-.2l-.4-.3c-.2 0-.5.1-.6.2-.3.1-.6.2-.8.4-.4.2-.6.5-.9.7-.4.2-.8.5-1.1.8-.1-.1-.1 0-.2 0s0 .2-.1.2c-.6.2-.7.7-1.4.9 0 .1-.1.1-.1.2-.2 0-.2.2-.3.3-.3.3-.6.6-.9 1-.2.2-.2.2-.4.2-.1.6-.6.7-.6 1.1-.1 0-.1.2-.3.2-.2.3-.5.6-.6 1.1-.6.2-.6 1-.9 1.4 0 .5-.5.7-.5 1.4-.1 0-.1.1-.1.2s.5-.4.4-.2M84.3 82.3c.1.4-.2.6-.2.8s-.1.4-.3.5c0 .6-.4.7-.4 1.3-.1-.1-.1 0-.1 0-.2.9-.7 1.5-.9 2.4-.1 0-.1.1-.1.2-.2.6-.5 1.2-.9 1.7-.5.1-.3-.2-.6-.3v-.1c-.1-.3-.2-.2-.2-.4V88c-.3-.6-.3-1.5-.7-1.9 0-.4-.2-.5-.1-.8 0-.1-.1-.1-.1-.2-.1-.5-.2-1.1-.2-1.6 0-.1-.1-.1-.1-.2s.2-.2.1-.3-.1-.2-.1-.3c0-1.1 0-2.5-.1-3.5-.2-.2-.2-.7-.2-1 0-.1.2-.1.2-.4 0-.2-.2-.1-.2-.2 0-.3.1-.6.2-.9-.4-.3-.2-1-.2-1.5.1-.2.1-.2.2-.2 0-.2 0-.5-.2-.7-.1-.6-.1-1.3.2-1.9-.1-.1-.2-.2-.2-.3.1-.2.1-.2.2-.2.2-.9-.2-1.8 0-2.7 0-.2.1-.4.1-.6 0-.5 0-1.1.1-1.6.1-.2-.1-.2-.1-.4s.2-.3.2-.5-.1-.2-.2-.3c.2-.3.2-.7.2-1.1 0-.4.2-.6.2-.8.1-.5-.1-.8.2-1.2-.2-.6.2-.7.3-1.2 0-.2-.1-.2 0-.4 0-.3.1-.7.1-.8 0-.1 0-.3-.1-.4 0-.1.1-.2 0-.3v-.4c.1-.5.1-1 .1-1.5.3-.5.1-1.6.3-2.3-.1-.2-.1-.4 0-.6-.2-.2-.1-.5-.1-1 0-.1-.1-.2-.1-.2s.1-.2.1-.3c0-.4-.1-.6-.1-.8s.1-.6.2-.7-.1-.2 0-.3c0 0-.1 0-.1-.1.1-.9-.3-2 .1-2.5 0-.3.1-.6.1-.9 0-.1-.1-.3-.1-.4.1-.2.4-.3.4-.6 0-.2-.1-.4-.3-.5-.1-.2 0-.2-.1-.4l-.3-.6c-.2-.2-.4-.2-.6-.6-.1 0-.2 0-.2-.1s-.1-.1-.1-.2l-.2-.1c0-.1-.1-.2-.1-.2-.4-.3-.7-.6-1.1-.9-.1-.3-.3-.6-.6-.7 0-.1-.1-.2-.2-.2-.2-.1 0-.5-.2-.4-.2.2-.1.5-.2.6-.6.1-.8-.3-1.3-.6 0 .3 0 .6-.2.6s-.4.1-.6.1-.2-.1-.3-.1c-.2 0-.4 0-.6-.2-.2.2-.5.2-.7.3 0 .1-.2 0-.3 0-.1.2-.2.2-.4.5-.2.6-.2 1.5-.7 2.1-.1.6-.2 1.2-.5 1.8 0 .3-.2.6-.2 1-.2.1-.2.2-.2.6-.2.6-.4 1.3-.4 2 0 0-.2 0-.2.2 0 .7-.3 1.2-.3 2-.1.2-.2.5-.2.8-.1.4-.2.9-.2 1.3-.3.2-.3.6-.3 1-.1 0-.1.1-.2.2v.2c0 .3-.1.5-.2.7 0 .4-.1.9-.2 1.3.1 1.1-.5 1.7-.5 2.8-.2.3 0 1.1-.2 1.5 0 .4-.1.7-.1 1.1 0 .1 0 .3-.1.4V64c-.2.5 0 .8-.2 1.1 0 .2-.2.4-.2.5v.2c0 .1-.1 0-.1.1v.8c0 .1-.1.3-.1.4-.1.4 0 .9-.1 1.3v.1c-.1.3-.1.7-.1 1 0 .4-.1.8-.1 1.2v.7c0 .2-.1.2-.1.2v.5c0 .8-.1 1.9-.1 2.8 0 .6.1 1.2.1 1.7 0 .1-.1.3-.1.4v.4c0 1.1 0 2.2.2 3.3.1.2-.1.2-.1.3 0 .3.2.7.2 1v.9c.1.2.1.4.2.6 0 .2 0 .2-.1.3 0 .4.2.8.2 1.3.2.2.1.5.4.7-.2.1 0 .3 0 .5.2.2.1.7.2 1 .1.5.2 1 .5 1.5 0 .4.4.7.4 1.1.2.1.2.5.3.7 0 .2.4.3.4.8.3.2.2.6.4 1 .1.2.2.2.2.3v.3c.2.1.4.4.3.7h.2c.1.2.3.4.5.6.2.1.4.3.6.4 0 .2.1.2.1.2.5.3 1.1.7 1.5 1.1.4.1.8.2 1.1.3.2.1.6.1.7.2 0 0 0 .2.1.2s.4.1.6.1c.3.2.6.3.9.4l1.3.2h.2c.6 0 1.2.2 1.7.7.2-.1.3.1.6.2.6.1 1.1-.1 1.5.2.3-.1.5.3 1 .1.4.3.9.4 1.4.3.2 0 .3 0 .5.1.2 0 .7-.2.9-.2.2-.3.6-.6 1-.6 0 0 .1-.1.2-.1.2 0 .2-.1.3-.1.2-.2.5-.5.7-.6.4-.5.9-.9 1.5-1.2.2-.3.3-.4.5-.7.2 0 .3-.3.4-.5s.1 0 .2-.1.1-.1.2-.1c0-.1.1-.2.1-.3.1 0 .2-.1.3-.2.2-.2.2-.7.6-.9 0-.2.1-.2.1-.4.1 0 .1-.1.2 0 .2-.5.2-1.1.7-1.3 0-.2.1-.2.1-.5.3-.3.3-1.1.9-1.3.1-.6.4-1.2.8-1.7V88c.1-.3.2-.5.4-.7.2-.6.4-1.3.7-1.9.2-.3.3-.7.3-1 .1 0 .1-.2.2-.2 0-.2.1-.3.1-.5s.2 0 .2-.2c.1-.4.2-.8.4-1.1-.1-.6.3-.7.3-1.1.2 0 .2-.2.3-.2 0-.3.1-.5.2-.7l.2-.2c.1-.1.1-.2.2-.2v-.6c.2 0 .2-.2.3-.2.1-.5.5-.7.5-1.4.3-.2.4-.7.6-.9.1-.2.2-.5.3-.7 0-.3.1-.5.2-.7 0-.3.1-.6.3-.7.1-.7.6-1.2.6-2 .1-.1.2-.1.2-.3 0-.1-.2-.1 0-.2l.6-1.2c.1-.3 0-.7.3-.9-.2-.2 0-.2 0-.3s.1-.2.2-.2c0-.3.1-.6.2-.7-.1-.6.1-1.3.5-1.8-.2-.2 0-.2 0-.6.4-.2.3-1 .7-1.2v-.3c.3-.2.4-.5.5-.9.1-.5.3-.7.3-1 .1-.2.2 0 .2-.2s.3-.4.4-.7c0 0 .1-.1.2-.1 0-.5.2-.7.2-1.1l.2-.2c0-.8.8-.9.8-1.7.4-.1.4-.5.7-.5 0 0 0-.2.1-.2.3-.1.5-.3.7-.6.1-.7-.3-.7-.2-1.1.1-.2.2-.5.2-.7-.1-.1-.1-.3-.1-.4.2-.2.1-.5.1-.9-.1-.1-.1-.1-.1-.2 0-.4-.1-.7-.1-1.1-.2-.1-.2-.2-.3-.6-.2-.2-.5-.7-.7-1-.2-.1-.5-.1-.6-.2-.2-.3-.3-.7-.8-.7-.2-.4-.5-.5-1-.7-.1-.1-.2-.3-.2-.4-.2 0-.2.2-.6.2-.1-.3-.5-.2-.7-.4h-.3c-.1 0-.2-.1-.2-.2-.3.1-.6 0-.8-.2-.2.3-.4-.1-.7.1-.1-.2-.3-.2-.4-.3 0 .1-.1.2-.2.2-.1-.2-.5-.2-.7-.2s-.2-.2-.3-.2-.1.1-.2.1c-.1-.1-.3-.1-.4-.1l-.1-.1c-.2 0 0 .1-.2 0-.3 0-.6 0-.8.1 0-.2-.2 0-.4-.1s0 .1-.2.1h-1.3c-.2.1-.2.2-.3.1-.1.1-.1.2-.3.2-.2-.2-.5-.4-.7-.5-.1 0 0 .2-.1.2-.4.1-.8.1-1.2.1-.1.1-.1.3-.2.4-.2.2-.3.3-.4.5-.5.4-1.1.4-1.5.8 0-.1 0-.2-.1-.1-.5.1-1 .4-1.5.7 0 .2-.2.3-.2.4h-.2c-.4.5-.7 1-.9 1.6.2.2.4.3.4.6-.2.3-.4.4-.4.7-.1.3-.1.7 0 1-.1.2-.3.6-.2.8s.2.2.2.4c.1.2.2.4.4.7-.2.1-.2.1-.2.3s.8 0 .8.2-.2.3-.1.5c.3.2.3 0 .5-.1 0 .4-.2.4-.4.6-.1.1-.1.3-.2.4.1.1.1.2.2.2s.3 0 .4.2c0 .3.1.5.1.8.1.1.2.1.2.3-.2.2.1.3 0 .7l.2.2c0 .6.2 1-.2 1.3 0 .7-.2.9-.2 1.5-.2.2-.1.4-.2.8 0 .1-.1.2-.1.3-.1.3-.1 1.1-.3 1.2 0 .6-.2.7-.1 1.1-.2.2-.1.2-.2.3 0 .3-.1.6-.2.9 0 .3-.1.5-.2.7-.1.3-.2.7-.3 1v.6c-.1.2-.2.2-.2.4-.1.3-.2.6-.2.9-.2.1-.2.6-.2.8-.2.1 0 .2 0 .2-.2.2-.3.5-.2.7-.1.1-.2.1-.2.2 0 .6-.3.8-.3 1.4-.2.2-.2.3-.3.6-.1.3-.2.5-.2.8 0 0 0 .1-.1.1 0 .2 0 .4-.1.6-.3.1-.2.3-.3.6 0 .1-.1.2-.1.3-.2.2-.2.4-.3.7-.2.8-.5 1.6-.9 2.4v.1zm142.9-38c.1.3-.1.5-.4.5.1-.2 0-.2 0-.2-.2 0-.3 0-.5.1.1.1.2.3.2.5-.2-.1-.2.1-.5 0 .2-.1-.1-.1-.1-.1h-.4c-.1.1.1.2 0 .2-.2 0-.2-.1-.2-.2-.3-.2-.2-.7-.6-.6 0 .2-.2.2-.1.2-.2.3-.3.5-.7.5-.1.3-.6.4-.9.3 0 .2.1.3.1.6-.1 0-.2-.2-.2 0-.2.1 0 .2.1.3-.1.1 0 .3-.1.4h-.6c-.2.3.2.4.2.8-.1 0-.2.1-.2.1s-.1.2-.1.3.2.1.2.2c.1 1.2-.1 2.5-.1 3.6-.1 0-.1-.2-.2-.1 0 .2.1.2 0 .3-.4 0-.5-.2-.6-.2 0-.1 0-.3-.2-.2 0-.2-.1 0-.2 0-.4-.2-.7-.3-.9-.7-.2 0-.2-.1-.5-.2-.4.2-1.1-.2-1.4.2-.1-.2-.6-.2-.9-.1 0 0 0 .2-.1.2-.5 0-.7-.2-1.1-.1-.3-.3-.6 0-1 .1-.1.4-.5.6-1 .7-.3.5-.5 1-.4 1.5-.3.1-.4.4-.6.8.1.4-.1.6-.1.9-.2.2-.2.2 0 .3 0 .2 0 .5.1.6.2.2.3.7.6 1 0 .2-.1.5-.2.7-.2 0-.5 0-.7.1 0 .2-.1.3-.2.4-.1.3.2.3.2.5s-.2.5 0 .7c-.2.2-.3.5-.5.7h-.1c-.2.4-.5.7-.8.9-.1.4-.3.6-.6.7 0 .4-.2.8-.6 1.1 0 .2-.3.2-.3.4-.1 0-.1.1-.2.1-.2.7-.9.9-1.1 1.6-.2.1-.2.4-.6.5 0 .1 0 .1-.1.2-.7.7-1.1 1.5-1.9 2.2 0 .2-.2.1-.1.2-.6.3-.8 1.1-1.4 1.5-.1.2-.3.2-.4.5-.4.1-.4.7-.8.7 0 .2-.2.2-.2.4-.2-.2-.1.2-.3.1 0 .2-.2.2-.2.4-.4.2-.6.7-1.1.8 0 .2-.1.2-.2.3-.1.2-.3.3-.5.4-.2.2-.2.4-.6.5v.2c-.1 0-.2.1-.2.1-.1.1-.1.2-.2.2s-.2.1-.3.1c-.6.1-1.2 0-1.8-.2-.6 0-1.2-.2-1.7-.6-.2-.1-.6 0-.7-.1v-.2l-.4-.1c-.6-.4-1.4-.4-1.6-.9-.7-.2-1.3-.6-1.9-1 0-.1-.1-.1-.1-.2-.6-.3-1.1-.8-1.1-1.5 0-.3 0-.3-.1-.5V67.9c-.1-.2 0-.2 0-.4 0 0 0-.1.1-.1 0-1.9.2-3.7.6-5.5-.2 0-.2 0-.2-.1 0-.5 0-.9.3-1.1 0-.6.5-.6.4-1.3.2-.1.1-.5.2-.7.2 0 .2-.2.2-.2.1-.5.4-.7.6-1.3.1 0 .1-.1.2-.1 0-.2.2-.2.2-.3s.1-.1.2-.1c0-.2.1-.2.2-.4l.2-.3s0-.1.1-.1c.1-.1.1-.5.1-.5.1 0 .2-.1.2-.1s-.1-.1 0-.1.2-.2.3-.2c-.1-.4.2-.2.2-.6l.6-.6c0-.2.1 0 .2-.2s.2-.2.2-.4c.1 0 .1-.1.2-.1.3-.7 1-.9 1.4-1.6.4-.2.6-.9 1.1-1 0-.1.1-.2.1-.3.7-.2 1-.7 1.6-.9.1-.1.2-.2.4-.2.2-.2.5-.3.8-.3.1-.2.6-.1.8-.2s.1-.2.3-.2.4.1.6.1c.3-.1.4-.2.6-.3l.3-.2.9-.4c.2 0 .3-.1.4-.2.4-.2.9-.3 1.3-.2.2-.2.4-.2.6-.2s.2-.3.3-.3h.4c.2 0 .5-.1.6 0 .2-.2-.1-.2-.1-.3.5 0 .6-.1.8-.5-.2-.1-.2-.3-.2-.5.1-.4.1-.6.3-.7 0-.2-.1-.2-.1-.4-.2.1-.2-.3-.2-.3s-.1-.1-.2-.1c-.2-.2.1-.8 0-1.1-.1-.1-.4-.2-.4-.2-.3-.2-.5-.4-.6-.7-.7-.1-1.3-.5-1.7-1-.1.1-.1 0-.2 0-.1-.2-.5-.2-.6-.4-.5 0-.7-.4-1.2-.4 0 0-.1 0-.1-.1-.2 0-.4-.1-.6-.1.1-.2 0-.1 0-.2-.5-.1-1-.3-1.3-.7-.9 0-1.3-.5-2-.6-.1-.3-.8-.1-.9-.5-.4 0-.5-.2-.6-.2h-.2c-.3 0-.7-.1-1-.2-.2.2-.6.4-.6.2.1.2-.2.2-.2.2-.2-.2-.6-.1-.9-.2-.3.2-.7.3-1 .4-.1.2-.6.3-.6.6-.4.3-.7.7-1.1 1.1-.1-.1-.1 0-.2 0 0 .2-.2.3-.2.5-.6.2-.7 1-1.4 1.2-.2.4-.6.7-.8 1.1-.2 0-.2 0-.2.1-.1.4-.5.6-.6.9-.2 0-.3.4-.6.5.2.1 0 .1 0 .2s-.1.1-.2 0c-.2.6-.7.9-1 1.3l-.2.2c0 .2-.1.2-.1.3-.2.2-.5.3-.6.7-.3.3-.4.7-.9.9 0 .2-.2.3-.1.6-.2.2-.2.4-.5.7-.2.5-.6.7-.6 1.1-.1 0-.1.2-.2.2 0 .1-.1.2-.2.2-.2.4-.3.8-.6 1.1 0 .2-.1.4-.2.4 0 .2-.2.2-.2.3-.1.1-.2.1-.2.1.2.6-.3.5-.2.9-.1 0-.1.1-.2.1-.1.7-.6 1.1-.6 1.9-.2.2-.2.7-.2 1s-.2.6-.2.8c-.1 0-.1.1-.1.2-.1.2-.1.5-.1.7-.2.2-.4.5-.3.8-.2.3-.1 1-.4 1.2-.1.3 0 1-.1 1.5 0 0-.1 0-.1.1-.1.8-.1 1.6-.1 2.4 0 1 0 2.1.2 3.1.1.5 0 .9.1 1.4 0 .1.2.1.2.2 0 .3 0 .6.1.9l.1.1c.1.2.1.4.1.7.2.1.2.1.2.2l.3.9c.1.1.2.2.2.3.1.1.1.2.1.2l.4.4c.1.1.1.2.2.3.1.4.4.8.7 1 0 .1.2.2 0 .2.5.3.7.8 1.1 1.2.2 0 .3.2.4.4.5.1.6.4 1 .6.1.3.6.3.7.6.6.2.7.7 1.1.7 0 .2.5.1.5.2.7.2 1.1.8 2 .9.6.6 1.6.7 2.1 1.1h.4c.3.3.7.5 1.1.6 0 .1.2.1.2.2.2 0 .4.1.5.1s0 .1.1.1c.2.2.5.2.8.2v.2c.2.1.3 0 .6.1l.2.1c.2.2.9.1 1.1.2.4.1.8.2 1.2.2.1 0 .2.1.2.1s.6-.2.6 0c0-.2.2 0 .4-.2-.2-.1-.3 0-.3-.1.3-.1.6-.1.9-.1-.2.1-.4 0-.4.2.3.2 1.1-.1 1.4 0 .3-.1.7-.2 1-.3.2-.5.8-.2 1.1-.6 0 .1.1.1.2.1 0-.2.4-.2.6-.1 0-.1 0-.2.2-.2.6 0 .7-.2 1.1-.5.7-.3 1.1-.9 1.8-1.2 0-.2.3-.2.3-.5.5 0 .5-.5.6-.6s.2-.2.3-.2c0-.1 0-.1.2-.2h.2c.1-.5.5-.9 1-1 0-.3.1-.3.1-.5.2 0 .2-.2.6-.2 0-.2.1-.2.2-.3.1.2.1 0 .2 0 .1-.3.4-.5.6-.7 0-.1.1-.2.2-.2 0 .1.1.2.1.2 0 .4.2.7.2 1.1.2.1.1.6.5.7.3.8.6 1.6 1.1 2.3.2.2.2.4.2.6.2.1.4.4.4.7l.7.7.3.6c.3.2.4.5.7.6v.2c.6.2.8.7 1.5.8.3.3.5.7 1.1.7.2.5.9.5 1.1.9.6.2.8.6 1.2.8.1.2.5.2.6.4.6.1.9.7 1.7.7.1.2.4.2.7.2.2.1.4.2.6.2.4.1.9.2 1.3.2.2 0 .3-.2.5-.2 0 .1.1.2.2.2.4 0 1-.2 1.4-.2.6 0 1.2 0 1.8-.1.4-.2.9-.2 1.3-.1 0 0 .1-.1.1-.2.3-.1 1 0 1.2-.2.3 0 .5-.2.7-.3.5-.1 1-.4 1.4-.7.3-.1.6-.3.9-.5.6-.2.9-.6 1.5-.8 0-.1 0-.1.1-.2.3-.1.6-.3.7-.6.3-.2.6-.3.9-.6h.3c.1-.2.4-.3.5-.7.2 0 .4-.3.6-.3.3-.6 1.1-.8 1.4-1.3 0 0 .1 0 .1-.2s.2-.1.2-.2c.2.2.2 0 .2-.1s.3-.3.4-.5c.1 0 .1-.2.2-.2l1.3-1.4c.3-.2.4-.4.5-.7.6-.3.8-.9 1.2-1.2V75c.4-.3.7-.6 1-.9 0-.2.2-.3.2-.5.2-.1.2-.7.4-.7 0-.2.2-.2 0-.6.4-.2.4-.7.7-1.1-.1-.4 0-.8.3-1.1-.2-.4 0-.7 0-1.3.1 0 .1 0 .2-.1 0-.2.1-.8.1-1s.2 0 .2-.1c-.2-.2-.2-.1 0-.2-.3-.4-.2-.9.1-1.3-.1-.2 0-.5.1-.7 0-.2-.2-.3 0-.4 0-.1-.2 0-.1-.2.1-.6 0-1.3-.2-1.9.2-.1.2-.1.2-.2s-.1-.3-.1-.6c0-.1.2-.1.1-.2v-.8c-.1-.1-.2-.1-.2-.2 0-.2.2-.2.2-.3v-.7c0-.3-.1-.6-.2-.9 0-.3-.1-.6-.2-.8.1-.4-.2-.8-.2-1.3-.3-.2-.4-.5-.4-.9-.2-.1-.2-.3-.2-.7-.3 0-.5-.2-.6-.4v-.1c-.2-.3-.4-.3-.6-.5 0-.5-.4-.8-.6-1.1h-.3c-.2-.8-.9-1.1-1.2-1.7-.6-.1-.6-.7-1.1-.6-.4-.5-1.1-.6-1.5-1-.1.1-.2 0-.2 0 0-.1-.1-.2-.2-.2-.5-.2-1-.4-1.6-.6-.1-.4-.7-.4-1-.6l-.6-.3c-.1 0-.2 0-.2-.1 0 0-.1 0-.1-.1-.2-.1-.4-.1-.7-.1-.2-.3-.6-.3-1.1-.4 0-.3-.5-.3-.6-.5-.1 0-.1-.1-.3-.1-.1 0 0 .2-.1.1-.4-.1-.5-.6-1.1-.4 0-.3-.4-.2-.5-.4-.5 0-1.1-.2-1.6-.4l-1.1-.3c-.1.1 0 .2-.1.3-.1 0 0 0 0 .2-.2 0-.3-.2-.6-.2l.2-.2.2.2c0-.2.2-.2.2-.3-.2 0-.2-.2-.4-.2-.2.1-.4.2-.6.2-.1-.1-.2-.1-.4-.2.1 0 .2-.1.2-.2s-.2-.1-.2-.1c0-.2 0-.3-.1-.3s-.1.2-.2.2c-.1-.3-.5-.5-.9-.6h-.2zm46.2-12.4c.1-.4-.3-.4-.3-.9-.2 0-.4-.1-.6-.2h-.3c-.3-.2-.6-.3-.9-.3-.2-.2-.6 0-.7.1h-1.5c-.1 0-.1-.1-.2-.1h-.5c-.2-.2 0 .1-.2.1h-.6c-.3.1-.7.2-1 .3-.6.1-1.2-.2-1.7 0-.2.1-.6.1-.7.2-.5.5-1 .8-1.6 1-.1.4-.5.4-.6.7-.1 0-.1.1-.3.1-.1.3-.3.6-.3.8-.2 0-.2.2-.3.2-.2.4-.5.8-.8 1.1-.2.4-.6.6-.6 1.1-.5.3-.5 1.1-.9 1.5-.1.3-.2.7-.3 1l-.2.2c-.2.9-.9 1.6-.8 2.6-.1.1-.1.2-.2.2-.1.5-.2 1.1-.4 1.5 0 .6-.4.9-.4 1.4-.2.6-.2 1.5-.7 1.8.1.4-.1.7 0 1-.2.1-.2.4-.2.7-.1 0-.1.2-.2.2-.1.3 0 .6-.1.9 0 .1-.2.2-.2.4-.2.2 0 .4-.2.6 0 .2 0 .3-.2.4-.1.3 0 .7-.2.9 0 1-.3 1.6-.3 2.5-.3.2-.3.7-.3 1.1-.1.1 0 .2-.2.3 0 .5 0 1-.1 1.5-.1 0-.1.1-.1.2-.1.4 0 .9-.1 1.4l-.1.1-.2 1.8v.5c0 .2-.2 0-.2.2-.1 1 0 2-.2 2.8-.1.2.1.1.1.2s-.1.1-.1.2c-.1.5-.2 1-.2 1.5v.7s-.1 0-.1.1c0 .8-.1 1.6-.2 2.4-.2.6 0 1.4-.1 2 0 .1-.2.2-.2.4s-.2.1-.2.2c-.1.3 0 .6-.1.9s0 .4-.1.6c-.1.4-.1.8-.1 1.2 0 .2-.1.3-.2.5 0 .4-.1.8-.2 1.2v.1c-.2.5-.2 1-.2 1.5l-.2.1c0 .3-.1.6-.2.8 0 .1.1.2 0 .3s.1 0 0 .2-.1.1-.2.2c0 .3-.2.4-.4.6.2.7-.2 1.4.1 2 .2.2.3.5.6.7 0 .3.3.3.3.7.5.2.6.7 1.4.6.1.4.7.2.7.7.3 0 .6 0 .9.1.1 0 0 .1.1.1h.4c.3 0 .6.1.8.2h.9c.2.3.6.3.7.6.5 0 .9-.2 1.2-.6.6.1 1.2 0 1.8-.1 0-.1.2-.1.3-.2h.2l.6-.5h.2c0-.2.2-.2.3-.2.2-.1.1-.2.2-.2.1-.1.3-.2.3-.3.1-.1.1-.2.2-.4s.2-.3.3-.4c0-.2.2-.3.3-.4.1-.6 0-.9.1-1.4 0-.1.1-.2.1-.2v-.2s.1-.4.1-.5c0-.1 0-.2-.1-.2v-.8l.2-1.4c.1-.5 0-.9.1-1.5 0-.2.3-.2.2-.5-.3-.4-.2-1.1-.2-1.5v-.3c0-.3.2-.7 0-.9.1-.7.1-1.3 0-2 .2-.2.1-.6.1-.9 0-.1.2-.1.2-.2s.2-.6 0-.8c0-.2-.2-.6-.2-.8s.2-.4.2-.7v-.2c-.2-.2-.2-1-.2-1.3.5-.2.2-.9.5-1.4 0-.2-.1-.2 0-.5.1-.2-.2-.2-.1-.3.2-.3.2-.8.2-1.4.1-.1.2-.1.2-.3s0-.8.2-.9c-.1-.1-.1-.3-.1-.6.2-.4.2-1.1.7-1.4-.1-1.2.5-1.6.5-2.6.4 0 .3-.2.5-.2.1-.4.1-.7.2-.7s0-.1.1-.2.1-.2.4-.5v-.3l.1-.1c.1-.2.1-.7.2-.8 0-.2.1-.2 0-.2.2-.2.2-.7.3-.8.4.3.2 1 .3 1.4v2.2c0 .1.2.1.1.2.1.1 0 .2-.1.2 0 0 .1 0 .1.1h-.1c-.2.4.2.4 0 .5.1.1.1.1.1.2v1.5c0 1.2.2 2.4.2 3.6 0 .1.1 0 .1.1v1.5c0 .1.1.2.1.3v.3c0 .2 0 .4.1.6.2.4.1 1.1.2 1.6 0 0 .1 0 .1.1.1.4.2.8.2 1.1.1.4.2.8.2 1.2.1.3.2.5.2.8 0 .1.1.1.1.2.4.7.6 1.5.7 2.4.2.2.4.4.5.7l.6.5c.2-.2.3.1.5.1 0 .2.2.3.3.4.1.1.4.2.6.2.2 0 .4 0 .7.1.2.2.3.2.5.2s.1.2.2.2.3 0 .3.1l.1-.2c.1 0 .3 0 .4.2.1.2.3.2.4.2 0 .2.3.2.6.3.3.1 1.1-.1 1.4 0 .3-.4.7-.7 1.1-.9.4-.1.7-.1.7-.2l.2-.3c.2-.1.3-.1.3-.2.2.2.2 0 .3 0 .4-.2.8-.5 1.1-.7.2 0 .2.1.3.1.2-.4.8-.5 1-.7.2-.2.3-.5.5-.6.2-.1.2-.2.5-.2s0-.2.2-.2.2-.4.6-.5c.3-.1.5-.5.8-.6.3-1 1.3-1.7 1.2-3 .1 0 .1-.2.2-.2.1-.5.7-.6.6-1.3.2-.1.1-.2.2-.4.1-.3.4-.3.4-.5s0-.3.1-.5l.1-.2c.1-.3.1-.3.2-.4 0-.2.1-.4.2-.6 0-.4.1-.6.3-.7 0-.2.1-.2.1-.3.2 0 0-.3.2-.3 0-.7.4-1.1.7-1.5v-.3c.1-.1.1-.2.2-.4 0-.7.4-1 .6-1.5 0-.1.2-.1.2-.2 0-.4.2-.6.2-1.1.2-.2.3-.5.2-.7.4-.1.5-.4.6-.9.2 0 .2-.2.3-.2.1-.1.2-.2.2-.3.2-.2.4-.5.6-.7.2-.6.7-.9.7-1.6.3-.2.6-.8 1.1-1.1-.1-.2 0-.3 0-.4.4-.2.6-.6.5-1 .3.1.2-.3.5-.3.4.5.2 1.7.5 2.4-.1.6-.1 1.2-.1 1.8 0 .1.1.1.1.2v4.8c0 .8 0 1.6.1 2.4.2.2-.1.2-.1.2l.1.2c.2.2 0 .6.2 1 0 1 0 2.1.1 3.2 0 0 .1 0 .1.1 0 .7.2 1.5.2 2.2.2.3.1 1.1.3 1.6v.8c.1.1.2.3.3.3.1.3 0 .8.2 1 0 .2-.2 0-.2.2.2.1.2.2.2.3s-.2.1-.2.2c.2.5.2 1 .3 1.5 0 0-.1 0-.1.2.2.2.2.7.4.9l-.2.3c.1.2.2.5.2.7.3.6.5 1.3.6 2 .3.2.9.4 1.1.7l.2.5c.1.2.5 0 .6.2 0 0 0 .1.1.1 0 .1.1 0 .1 0 .2.1.2.2.3.3.1.1.3.1.4.1.1.3.5.5.8.5.2.2.3.5.7.3.1.3.5.2.6.6.4 0 .4.3.8.2.3-.4.6-.6 1.1-.7.1-.2.2-.2.3-.3.4 0 .5-.5.9-.5.3.1.6.1.9 0 .2-.4.7-.7 1.1-.7-.1-.2.1-.2.1-.3s.1-.6.1-.8h.1c.1-.3-.2-.5-.2-.7.2-.3.2-.6.2-.9.3-.1.5-.3.7-.5V76c-.1-.3-.2-.4-.2-.7-.5-.2-.3-.7-.3-1-.3-.2-.4-.7-.7-1 0-.2-.1-.3-.2-.4-.1-.3-.2-.6-.4-.8.1-.4-.1-.8-.4-1-.1-.2-.1-.4-.1-.7-.1 0-.1-.2-.2-.2v-.5c0-.1-.2-.3-.2-.4v-.2c0-.1-.1-.1-.1-.2v-.5c0-.1-.1-.1-.2-.2v-.6c0-.1-.2-.1-.2-.2s.2-.6.2-.8c-.3-.1-.2-.4-.2-.9 0-.1-.1-.2-.1-.2 0-.2.1-.7.1-.9s-.1-.2-.1-.4.1-.3.1-.5c0-.5 0-.9-.1-1.4v-1.8-1c-.1-.5 0-1 .2-1.5 0-.2-.2-.6-.2-.8s.2-.2.2-.4-.1-.6-.2-.8c.1-.2.2-.2.3-.3 0-.2-.2-.2-.2-.5 0-1 .2-1.5.2-2.8.2-.4-.2-1-.3-1.2 0-.2.2-.4.2-.5 0-.3-.1-.3-.1-.5 0-.4 0-.8.1-1.2-.2-.6-.2-1.2-.2-1.9-.3-.5-.2-1.1-.2-1.7-.2-.1-.2-.1-.2-.2s-.1-.7-.1-1c0-.2 0-.4-.1-.6-.1-.1-.2-.3-.2-.5-.2-.2-.2-.9-.6-1.1.2-.2.2-.2 0-.3 0-.1-.2-.1-.2-.2v-.3c-.2-.1-.3-.4-.4-.5-.1-.1-.1-.2-.1-.3-.2-.1-.2-.6-.4-.7 0-.1-.2-.2-.2-.3-.2-.3-.2-.9-.6-1.1 0-.2 0-.4-.1-.6-.2-.2-.4-.5-.5-.7-.2-.3-.3-.6-.6-.8-.2-.2-.3-.5-.4-.7-.2-.1-.5-.2-.6-.5-.2-.2-.3-.4-.6-.6-.3-.1-.6-.3-.8-.5-.4 0-.7 0-1-.2-.3.2-.6.2-.9.2-.3-.2-.6-.3-.9-.3-.1 0-.2 0-.2-.1-1-.1-1.9 0-2.9.2-.5.3-1 .5-1.5.7-.7.2-1.4.5-2 .9-.1.2-.2.2-.4.4s-.6.3-.8.6c-.1.2-.3.4-.6.4 0 .2-.2.2-.2.2-.1.2-.2.4-.4.6-.3.2-.5.7-.7.7 0 .3-.2.3-.3.6-.2.2-.4.5-.5.8-.5.2-.7 1-1.1 1.5 0 .2-.2.2-.2.3-.3.1-.5.2-.5.7-.5.2-.7 1-1.1 1.3-.3.7-.8 1-1.1 1.7h-.2c0 .2-.3.2-.3.6-.5.6-.7 1.4-1.4 1.9 0 .2-.2.2-.1.4-.2 0-.2.3-.5.3-.2-.4-.2-.9 0-1.4-.3-.3-.2-1.1-.4-1.5.2-.1.1-.2.1-.4s.1-.3.1-.4c0-.5 0-.9-.2-1.4v-.8c.1-.2.1-.1 0-.2v-1.3c-.3-.2-.2-.4-.2-.7 0-.7-.5-1.3-.5-1.7 0-.1-.1 0-.2-.1 0-.3 0-.6-.2-.8-.1-.2 0-.7-.1-.8-.2-.3-.2-.4-.2-.7-.3-.2-.3-.3-.4-.7-.2 0-.2-.2-.2-.4-.2 0-.1-.1-.2-.2 0-.1-.1-.2-.2-.2 0 0 0-.2-.1-.2s-.4-.2-.4-.2c-.1-.2 0-.2 0-.2s-.2-.1-.2-.2c-.2-.2-.2-.5-.7-.5-.1-.7-.6-.8-1.1-1.3-.1 0 0 .3-.2.2.5-.3.3-.4.1-.3M116.5 17.6c.2 0 .1.3.3.2.2.6-.2 1.4.2 2 0 .2-.2.2-.2.3-.2.1.2 0 0 .2-.2 1.8-.2 3.7-.2 5.4-.2.2-.4.2-.9.2-.3.1-1.1.1-1.2.2-.6.1-1.2.1-1.9.2-.5.3-1.3.1-1.9.3h-.1l-1.8.2v.1s0-.1-.2-.1c0 0 0 .1-.1.1h-.2c-.4 0-.8.2-1.1.2s-.2.2-.4.1c0-.1-.1.1-.2 0h-.1-.2c-.6 0-1.2.1-1.8.2-.8 0-1.5.1-2.3.2-1.4.1-2.4.4-3.8.5-.4.2-1 .1-1.5.2-.1 0-.2.1-.3.1-.4.1-.9.1-1.3.1-.2 0-.4.1-.6.3-.5 0-1 0-1.5.1-.1 0-.1.1-.2.1-.7 0-1.3.1-2 .2-.8 0-1.6 0-2.4.1-.2.1-.5.1-.7 0-.5.1-1 .1-1.5.1-.1-.2-.5-.1-.5-.3-1-.2-2.3 0-3.3-.1-.1 0 0-.2-.2-.1-.3 0-.7-.1-.9-.4-.3 0-.5-.1-.9-.1 0 .5.5.5.6.8-.1.1-.1.2-.2.2-.6.3-1 0-1.5.2-.2.2-.8 0-1.1-.3h-.9c-.2.3-.2.7-.4.8-.2 0-.4.2-.6.2-.1 0-.1 0-.2-.1 0 0 0 .1-.2.1 0 0-.1-.1-.2-.1 0 .1 0 .1-.1.1-.1.8-.1 1.6 0 2.5v.2c.2.1.4.3.6.6.2.2.4.4.7.5 0 .2.1.2.1.5.2 0 .2.1.3.1.2.2.6.3.8.7.4.3.9.5 1.4.7l.6.3c.3.2.8.2.9.6.2.1.4.2.6.2l2.2 1c.2 0 .1-.1.2-.1.3.3.8.1.9.4.4-.1.7 0 1 .2.4 0 .8.1 1.2.2l.8.2c.7 0 1.4.1 2.1.2.2.2.7.2 1 .3.2-.1.2 0 .4-.1.3.2 1.1.2 1.4.3.3 0 .1-.2.4-.1s1 0 1.2.2c.7 0 1.1.1 1.6.1.1 0 .2-.1.2-.1s.4.1.5.1c.5 0 1.1-.2 1.5-.6.3-.2.5 0 .8-.2.2 0 .3-.2.4-.2.2 0 .4.1.6.2.1-.2.1-.1.5 0 .5-.3 1-.4 1.5-.3 0 0 0-.1.1-.1h2.2c.2 0 .5-.1.6-.1h1.2c.2 0 .4.1.7.1.4-.1.9-.1 1.3-.1.5.1 1.1.1 1.6-.2.3.1.7.1 1.1.1.3.2.8 0 1.4.1.3-.2.7-.1 1.1-.1.2 0 .3-.1.5-.2.2 0 .3.1.5.1.1.3 0 .9.3 1.1 0 .1-.3.1-.3.2.1.2 0 .5-.1.7.1.2.2.2.4.3-.3-.1-.2.2-.3.2v.3c0 .2.1.2.1.2v.2c-.2.4 0 .9-.2 1.2.2.2.2.6.1 1.1 0 0 .1.1.1.2-.1.3 0 .9-.2 1.1l.2.3c-.2 0-.1.2-.2.3.1 1 0 1.9-.2 2.8.1.2.1.3 0 .5 0 .1.2.1.1.3-.2.8-.1 2-.2 2.9-.1.2-.1.2-.2.3.1.6.1 1.1 0 1.7 0 .4-.2.9-.2 1.2s.2.5 0 .7c0 .1-.1.1-.1.2-.1 1 0 1.9-.1 2.8 0 .2 0 .4-.1.7-.1.2-.1.5-.1.7v1c-.1.5 0 1.1-.1 1.6 0 .1-.1 0-.1.1-.1 1.2 0 2.4-.1 3.8-.2.6-.3 1.2-.2 1.9 0 1.1 0 2.2-.2 3.3 0 0-.1 0-.1.1 0 .2 0 .5.1.7-.1.1-.1.2-.1.2v1.4c0 .2 0 .2-.1.3v1.8c0 1 .1 1.9 0 2.8v1.2c.1.7.1 1.4.1 2.1.3.5.1 1.6.2 2.2l.2.3c.1.9.1 1.8.1 2.5.1.6.2 1.1.2 1.7.2.6 0 1.5.2 1.8-.2.3.2.7-.1 1 .2.2.6.2.6.7.2-.1.2 0 .2.2h.5c0 .2.2.3.4.3-.1.2.1.2.1.4.2 0 .2.2.6.2l.2-.2c0-.1 0-.3.1-.4h.4c.2.2.4.2.5.6.2.1.2.2.4.4.2 0 .3 0 .3.2.2 0 .2-.1.2 0l.2.3c.2.1.4.1.5.2s.1.2.2.2c.1.1.3.2.4.2l.4.3h.7c.2.1 0 .3.2.3.1-.1 0-.2.2-.2 0 .2.1.2.1.2.2.1 0 .2.2.2.2.1.1-.2.2-.1s.3.2.4.4c.1-.1.2 0 .3 0s.1-.2.2-.2l.3.6c.3.1.4.4.6.4 0-.2-.1-.7 0-.8.2.1.2.5.6.5.1-.2.1-.4.2-.6s-.1-.4.1-.6c.2 0 .1.2.2.2s0-.2.1-.2c.4 0 .5.3.7.3-.1.3.2.3.4.6.2 0-.2-.2.2-.2.2.2.5.5.7.1.2.3.2.5.4.5 0-.2.2-.2.2-.5.1-.1.1-.3.2-.4.2 0 .3-.1.5-.1.1-.2-.2-.6.1-.6.2 0 0 .2.1.3.2-.1.4 0 .6-.1.2-.3 0-.7.2-.9.2 0 .2.1.3 0-.1-.4-.2-.7 0-1-.1-.4-.1-.9.1-1.3 0-.1-.1-.2-.1-.3s.1-.2.1-.2c0-.6 0-1.1-.1-1.7 0-.1-.1-.1-.1-.2-.1-.9-.2-1.8-.5-2.7-.2-.7-.2-1.2-.3-1.9 0-1-.1-1.8-.2-2.8 0-.1.1-.1 0-.2-.1-.5-.1-1.1 0-1.6-.1-.3-.1-.7 0-1-.1-.2-.1-.2-.2-.2.1-.7.1-1.4 0-2.1 0-.2.1-.4 0-.6.2-.2-.1-.5 0-1-.1-.1-.2-.1-.2-.2.2-.2 0-.8.2-1.1 0-1-.2-1.7-.1-2.7.2-.3.2-.7.1-1 .1-1.1.1-2.1 0-3.2 0-.1.1-.1.1-.2 0-.5 0-1-.1-1.5.2-.5-.1-1.4.2-2-.1-.1-.1-.3-.1-.4 0-.2.2-.2.2-.3-.1-.5.4-1 .1-1.4.1-.7.1-1.3.1-2 .1-.3.1-.6.1-.9 0-.7.2-1.4.2-2.2.2 0 .2-.3.2-.5v-1.9c0-.4.1-.9.1-1.2s-.1-.7.1-.8c.1-1.1 0-2.8.2-3.8.1-.6.2-1.2.2-1.8 0-.1.1 0 .1-.1.1-1.1.3-2.2.6-3.2 0-.2-.1-.2-.1-.2.2-.2.1-.6.1-.7s.1-.7.2-.8c0-.7.2-1.1.2-1.9.2-.4.3-.9.2-1.4.3-.3.4-.7.3-1.1.2-.1.2-.3.5-.4.1 0 .3.1.4.1.5 0 1.1-.1 1.6-.2.3-.1.6 0 .8.1.2 0 .1-.1.2 0 .1-.1.3-.2.5-.2l.5.2c.1 0 .3.1.4.1.5 0 1.1-.1 1.8-.1s1.3.2 2 .3c.3 0 .8.1 1.1.1.1 0 .1.2.2 0 .3.3.9.2 1.3.4 0-.1.1-.1.2-.1.5.1 1 .2 1.5.2.2.3 1.1.1 1.5.4.9 0 1.6.3 2.5.4 0 .1.1.1.2.1.4 0 .7.1 1.1.1.2 0 .5-.1.6.1h.8c.4 0 .6.1.8.1s.6 0 .6.3c0-.3.2-.2.3-.3 0 .2.1.2.2.3h2.1c.2 0 .2-.2.2-.2.2.1.5.2.7.2.2-.2.2-.2.2-.3h.5c.2-.1.2-.2.5-.2v-.1c-.2 0-.3-.2-.3-.4.4-.2.8-.3 1.2-.6l.1.1.3-.4c.2 0 .5-.1.6-.3-.2-.2-.2-.3-.2-.7-.1 0-.2 0-.3-.1-.1-.2-.1-.3-.1-.5-.3-.2-.6-.3-.9-.3.1-.1-.2-.2 0-.3.2.2.7-.2.7 0 .2-.2.5-.2.6-.5-.1-.2-.2-.5-.4-.7.1 0 .1 0 .1-.1.2-.1.4-.2.6-.2 0 0 0-.1.2-.1-.2-.2-.7-.2-.9-.4.1-.3 0-.4.1-.6.1 0 .2 0 .3-.1.1.1.7.1.7-.2-.1 0-.4-.2-.5-.2-.2-.1-.2-.3-.2-.3-.1-.2-.6 0-.6-.2.2-.1.4-.2.4-.3s.3 0 .3-.3-.2-.2-.4-.3c0-.3 0-.6.1-.9-.2-.1-.3-.2-.5-.3-.6-.3-1.2-.5-1.8-.5 0-.2-.1-.2-.1-.3s-.2 0-.2-.1-.2 0-.1-.3c-.3.2-.4-.3-.6-.3-.1-.1-.1-.2-.1-.2l-.9-.6c-.3 0-.6-.1-.8-.1s.3.3.2.3c-.2-.1-.1-.1-.3 0 .1-.1-.2 0-.2-.1-.5 0-1-.1-1.5-.2h-.3c-.1.1-.1 0-.2 0s-.3-.2-.5-.1c-.1-.1-.1-.3-.3-.3-1.2.1-2.4.1-3.7-.1-.2.1-.4 0-.6 0-.3-.1-.7-.2-1.1-.2 0-.1-.1-.2-.2-.2-.5 0-.9-.1-1.4-.2h-.4c-.1-.2-.3-.2-.5-.2s-.5 0-.7.1c0-.2-.2-.1-.4-.1s-.3-.1-.4-.2c-.1 0-.1.1-.3.1 0-.1-.2-.1-.2-.1-.3 0-.5-.3-1.1-.2-.3-.6-1.4.1-2-.2-.3 0-.5-.1-.7-.2-.2 0-.4.1-.7.1-.2 0-.3-.1-.5-.1s-.5.1-.6-.1c-1.1.1-2-.2-3.1-.2 0 0 0-.2-.2 0-.2-.2-.2 0-.2 0-.1-.2-.5-.2-.6-.3-.1-.5.5-.9 0-1.4.2 0 .2-.1.1-.1.1 0-.1-.1-.1-.2.2-.1.2-.2.2-.3 0-.3-.1-1-.1-1.2s.1-.7-.2-1c.2 0 .2-.2.2-.2-.2-.6-.3-1.2-.4-1.9.4-.6.6-1.3.4-2-.3-.5-.5-1.5-.8-2-.1-.2-.1-.4-.2-.7 0-.1-.1-.1-.1-.2l-.2-.7c-.1-.1-.1-.2-.2-.2-.4-.5-.6-1.1-.7-1.7 0-.3-.1-.6-.2-.9 0-.3 0-.7-.1-1 0-.1-.3-.2-.3-.2-.2-.9 0-1.6-.2-2.5 0-1-.1-1.7 0-2.6l-.4-.9c-.1-.7-.8-.7-.8-1.5-.2 0-.3-.2-.6-.2-.4-.3-.9-1-1.4-1.3-.4.1-.9 0-1.1-.3-.5.3-1.1-.2-1.3.3-.3-.1-.5 0-.7.2-.3 0-.5.1-.8.2-.2-.1-.3-.1-.5-.2-.2.6-.3 1.2-.4 1.8-.1 0-.1.1-.2.2l-.1.1c-.1.2-.2.4-.2.7 0 .1-.2.2-.2.2-.1.3-.1.5-.1.8-.2.4-.3.8-.2 1.2-.2.2-.3.6-.2.9-.2.2-.2.5-.3.9 0 .2-.1.3 0 .5s-.2.1-.1.2v.4c-.4.3-.1 1.8-.4 2.2 0 .1.1.3.1.4 0 .2-.2.2-.1.3-.1.1.1 0 .1.2-.2.2-.1.5-.1 1-.4.3-.2.9-.1 1.4-.5.2-.3.8-.2 1.1-.3.4-.4 1-.2 1.5 0 .1-.2.1-.1.2s.2.1.2.3-.2.5-.2.7l-.1.1zM30 56.9c.6 1 1.1 2.1 1.8 3 .1.5.3.9.6 1.3.1 0 0 .1.1.2s.3.3.3.5c.2.1.2.5.6.7-.2.1.2.1.2.2 0 0 .1 0 .1.1l1.4 2.5c.5.6 1 1.3 1.4 2 .3.8 1 1.2 1.2 2.1.1.2.2.2.2.2 0 .2.2.4.3.5 0 .1.2.3.2.4 0 .1 0 .2.1.3 0 .1.1.1.2.1s0 .3.1.4.1.1.1.2c.2.2.2.3.3.5l.3.6h.2c0 .2 0 .4.1.6h.1c.2.1.2.2.2.2.2.2.2.4.3.7 0 0 .1.1.2.1l.2.5c.1.1.1.4.2.5 0 0 0 .1.1.1.3.6.6 1.2.8 1.8.6.7.6 1.8 1.2 2.4.1.3.2.7.3 1 .2.1.3.3.2.5.4.9.8 1.8 1.1 2.7l.2.2c0 .1 0 .2.1.3.2.1.2.4.4.7l.6 1.2c-.1.3-.3.6-.3.9-.2.1-.2.2-.2.7h.9c.4.2.7.6 1.4.9-.1.3-.1.7 0 1 .3.2.6.3.9.4.1.1 0 .5 0 .6.3.2.7.2 1.1.2.2.1.6 0 .7.1s.6.5 1 .7h.8c.2.2 1 .2 1.2.6.6 0 1.1.2 1.5.6.5 0 .9 0 1.4-.2.3.1.9-.2 1.2-.2.1-.2.3-.3.6-.2.1-.2.2-.2.3-.4.2 0 .4-.1.6-.2.2 0 .3-.2.5-.5.2-.1.3-.2.3-.2s-.2-.5-.3-.7c.3 0 .3 0 .3-.1.2-.6.3-1.3.3-2 .2-.5.3-1.1.2-1.7 0-.1.2 0 .2-.2s-.2-.1-.2-.2c.2-.2.2-.6.2-.8.2-.3.2-.7.2-1 .1-.3.1-.7.1-1.1.2-.6 0-1.5.2-2 0-.1-.1-.1-.1-.3 0-.1.1-.1.2-.2 0-.5.2-1 .2-1.7.3-.2 0-.7-.2-1.1s.4-1 .4-1.5c0-.2-.2-.4-.2-.5s.2-.4.2-.5.1-.2.2-.2c.1-.4.1-.9-.2-1.3.1-.1 0-.5 0-.7.2-.7.3-1.5.2-2.2.1-.4.2-.9.1-1.3.1-.4 0-.7-.2-1.1.1-.1.2-.1.2-.3s-.1-.2-.1-.4.2-.7.2-1v-1.1c.6-.7-.2-1.5.1-2.2.2-.2-.1-.2-.1-.4s.2-.1.1-.2c0-.1-.1-.1-.1-.3.4-.5.1-1.3.3-1.9l-.3-.6c-.1-.7.6-1.3.2-2 0-.1.1-.2.2-.3v-1.2l-.3-.7c.2-.2.2-.3.2-.7h.1l.2-.2c0-.2-.2-.6-.2-.7-.1-.9.3-2 0-2.8.3-.2-.1-.9.2-1.1 0-.1-.1-.3-.1-.4.1-.6-.2-1.3.1-1.9.1-.1-.1 0-.1-.1.2-.9.3-1.7.2-2.6-.2-.2-.3-.5-.3-.8 0-.1.2-.2.2-.2s-.2-.3-.3-.7c0-.4 0-.7.1-1.1 0-.1.1 0 .1-.1 0-.2.2-.7.2-.9 0-.1-.2-.2-.2-.2 0-.3 0-.7.2-1 0-.3-.2-.7 0-.8 0-.1 0-.1.1-.2 0-.4 0-.9-.1-1.3.2-.2.1-.7.2-1.2.1-.3 0-.6-.1-.8 0-.1.2-.1.1-.2-.1-.4.2-.8.2-1.1l-.2-.2c0-.2.1-.3.2-.5.1-.4 0-.9.1-1.4-.2-.1 0-.7-.2-.9.2-.7 0-1.5.2-1.9 0-.1.2-.2.2-.2.1-.3-.2-.3-.2-.4.2-.2.2-.6.2-1 0-.2.1-.4.1-.7 0-.2-.1-.3 0-.4s.1-.2.1-.3c.2-.5 0-1 .2-1.4 0-.1-.1-.3-.1-.4.2-.2.1-.6.2-.9.2-.2.3-.6.3-.9.2-.2.2-.2.2-.5.1-.2.1-.3.2-.5V22c0-.2.2-.6.2-.7v-.6c.1-.2.2-.4.2-.6 0 0 .2 0 .2-.1.1-.4.2-.9.2-1.3.2-.3.4-.6.6-1l.5-1.1c0-.4.1-.6.1-.9.5-.4 1-.6 1.1-1.3.2-.1.4-.1.4-.2 0-.3.2-.5.2-.8 0-.2-.1-.2-.2-.5 0-.1.1-.1.1-.3s-.2-.3-.4-.6c0-.2.3-.2.2-.4v-1.2c-.1-.1-.2-.1-.2-.2.2-.5-.2-.7-.2-1-.2-.5-.4-.7-.6-1.3-.2 0-.2-.1-.4-.2-.3-.1-.4-.5-1-.7v-.3c-.2-.1-.4-.1-.6-.2l-.3-.2c-.2 0-.2 0-.3-.1-.1-.1-.2-.1-.3-.1-.5 0-.5-.1-.6-.1-.4-.3-1.1-.2-1.6-.2-.3-.2-.7-.3-1.1-.2-.1.1-.1.2-.2.2h-1.7c-.3-.1-.5-.2-.8-.3-.2.1-.4.2-.6.2-.1.1-.2.3-.3.3-.1 0-.2 0-.3.1-.4.3-.8.3-1 .5-.2-.2-.5.1-.6 0s-.1-.1-.2 0c-.6.1-1.2.2-1.9.2-.3.3-.6.5-1 .7-.1.3 0 .6.2.9-.2.1-.2.2-.2.2-.1.1-.2.2-.2.4 0 .1.1.2 0 .4l-.2.4s.2.5.1.7c-.2.2-.2.6-.3.7s.1.3.1.5c-.3.3-.6.5-.6.9 0 .6.6.7.8 1.2 0 0 .2 0 .2.1 0 .2.1.5.2.7 0 .6 0 1-.2 1.2 0 .7 0 1.3-.1 2-.1 0 0 .2-.1.2 0 .4-.1.8-.2 1.2-.1.3-.1.7-.1 1 0 .3-.1.5-.2.7 0 .3-.1.9-.1 1.4-.1 0-.1.1-.2.1v1.1c0 .1-.1.2-.2.2-.2.5 0 1.1-.2 1.7-.2.7-.4 1.4-.4 2.1 0 .1.2 0 .1.2-.2.6-.2 1.1-.2 1.7-.2.4-.1 1.4-.3 2 .1.7-.3 1.2-.2 2-.4.7 0 1.5-.3 2.4 0 .1-.1 0-.1.1-.1.8-.1 1.6-.1 2.4-.1 0-.2 0-.1.1-.1.2 0 .2.1.2l-.2.4c.1.8.1 1.5-.2 2.3.2.1.2.1.2.2-.3.3-.2 1.1-.3 1.5 0 .1 0 .2-.1.3-.1.1.1.1.1.2-.1.5-.1 1-.1 1.5 0 .1-.1.2-.2.3.1.4 0 .8-.1 1.2 0 .2.2.1.1.2-.1.5-.1.9-.1 1.4 0 .1-.1.3-.1.4v.8c-.1.1-.2.1-.2.2.1.8-.1 1.6 0 2.3v.7c-.3.5 0 1.4-.4 1.7.1.2.1.5 0 .7 0 .1 0 .1.1.1-.2.1-.1.3-.1.6 0 .9-.1 1.7-.2 2.6 0 .2.2.1.1.3-.1.2-.1.5-.1.7-.1.6-.1 1.2-.1 1.8 0 .1-.1.2-.2.2.1.2.1.4.1.6v.2c-.2.2.1.7-.2 1 .2.2 0 .6.1.8-.1.1-.3.1-.3.2 0 .3-.1.6-.2.8-.4.2-.5-.2-.7-.7-.5-.2-.4-.9-.7-1.1-.2-.4-.5-.7-.5-1l-.2-.2c.1-.5-.1-.7-.2-.7s0-.3-.2-.4c0 0 0-.1-.1-.1v-.7c-.4-.3-.5-.9-.9-1.2 0-.2-.1-.3-.1-.5-.2 0-.2-.3-.4-.4 0-.5-.1-1-.3-1.5-.2-.2-.2-.4-.5-.5.2-.5-.4-.6-.2-1-.2-.2-.3-.5-.5-.7 0-.2-.2-.3-.3-.5 0-.5-.2-1.1-.5-1.5-.1-.8-.7-1.1-.7-2-.1 0-.2 0-.2-.1-.1-.4-.2-.5-.5-.7 0-.3-.1-.5-.3-.7.1 0 .1 0 .1-.2-.2-.2-.1-.7-.3-.9 0-.4-.1-.7-.3-1-.2-.1 0-.2 0-.3-.2-.1-.2-.1-.2-.2s-.1-.5-.2-.7-.1-.3-.2-.5c.1-.3 0-.5-.2-.7 0-.2-.2-.2-.2-.2-.2-.4-.4-.7-.6-1v-.2c0-.1-.1-.1-.1-.2-.4-.4-.6-.9-.6-1.4-.3-.6-.6-1.3-.9-2-.1 0-.2-.2-.2-.2 0-.5-.3-.7-.3-1.3-.4-.2-.7-.6-.8-1-.4-.1-.5-.4-.6-.7-.2-.1-.2-.2-.2-.3v-.2l-.3-.5c-.1-.1-.2-.3-.2-.4v-.1c-.2-.2-.3-.3-.3-.4l-.2-.5c-.1-.2-.3-.3-.6-.4-.1-.3-.2-.7-.5-.7 0-.2 0-.3-.1-.5-.1-.1-.1-.2-.2-.2-.2-.3-.4-.7-.4-1.1-.2-.1-.2-.2-.2-.2-.4 0-.5-.4-.8-.4 0-.3-.3-.5-.5-.7-.2 0-.4-.4-.6-.5 0-.1-.1-.2-.2-.3-.2 0-.3-.1-.6-.2 0-.5-.3-.6-.4-.9-.6-.1-.6-.7-1.1-.8 0-.2-.3-.2-.3-.2-.2-.2-.3-.4-.6-.5 0-.2-.3-.2-.4-.2l-.3-.4c-.2-.3-.5-.3-.6-.3 0 0 0-.1-.1-.1-.1-.1-.3 0-.3-.2-.2 0-.3-.1-.5-.1-.2-.2-.5-.3-.7-.2-.3-.6-1.2-.3-1.5-.7-.5 0-.8-.2-1.3-.2-.2-.5-.5-.5-.8-.5-.1-.2-.2-.3-.5-.4H17c-.2.1-.4.4-.8.5h-.5c-.2.2-.4.3-.6.3-.6.3-1 .8-2 .7v.2c-.2-.2-.2 0-.3 0l-1.2.3h-.2c-.1.2-.4.2-.6.3s-.2.4-.5.5c0 .4-.4.5-.4.9-.2.1-.2.6-.4.7-.2.9-.6 1.5-.8 2.5-.4.3-.5.8-.5 1.3-.3 0-.2.3-.3.3 0 .4-.1.7-.3 1 .2.4-.3.6-.1 1.1-.1.1 0 .3-.2.3 0 .2.1.2 0 .2-.3.2-.3.7-.3 1.2-.3.3-.4.8-.2 1.2-.2.2-.2.6-.2.9s-.5.7-.6.9v.2l-.2.7c0 .2-.1.4-.2.5 0 .3 0 .5-.2.7-.1.3-.1.7-.1 1.1-.2.1-.2.3-.3.5-.1.7-.5 1.1-.4 1.9 0 .1-.1.1-.1.2-.1.6-.1 1.2-.2 1.8-.2.2-.3.5-.4.8 0 .1.2.1.1.2-.3.2-.1 1.1-.4 1.3 0 .2.2.2.1.3-.2.5-.2 1.2-.4 1.8 0 0 0 .1.1.1-.2.2-.1.5-.2.7 0 .2-.1.2-.1.2 0 .2.1.3 0 .4s.1.1 0 .2-.2.2-.2.3.1 0 0 .2c-.4.4-.1 1.5-.4 2.1 0 .4 0 .7-.1 1.1 0 .1-.3.1-.3.2-.1.4-.1.9-.1 1.4-.2.4-.2.9-.2 1.3 0 .1-.1.1-.1.2 0 .7-.1 1.3-.2 2 0 .6 0 1.2-.2 1.8-.2.7 0 1.3-.4 1.7 0 .4 0 .9-.1 1.3 0 .2 0 .4.1.6-.1.2-.1.3-.2.5 0 .3 0 .6-.1.9v1.5c-.1.2.1.5-.2.7l.1.2c0 .1 0 .1-.1.2l.1.1v.2c-.5.5.1 1.5-.2 2.2.1.4 0 .9-.3 1.2.5.3-.1 1.1.3 1.4 0 .1-.3.1-.1.2 0 .1.1.1.1.3 0 .1-.3.1-.3.2 0 1 0 2.1-.2 3.1 0 0 .1 0 .1.2 0 .4 0 .7.1 1.1-.1.2-.2.2-.2.4s.2.1.1.2c-.1.2 0 .7-.1.9-.1 1-.1 2 0 2.9 0 .1-.1.1-.1.2.1.9 0 1.6.1 2.5 0 .2.1.2.1.2-.1-.1-.1.1-.1.2.2.1 0 0 0 .4 0 .1.2.1.1.2s-.1.1-.1.2v2c0 .2 0 .5.1.7-.1.5.5 1 .6 1.5 0 .2-.2.4-.2.7-.3 0-.4.2-.4.2.1.3.7.2 1.1.4.1.6.7 1 1.3 1 0 .2.1.2.1.4.6.3 1.3.5 2 .6l.8.9v.3c.2.1.8 0 1.1.1.4.1.6 0 .9 0 .1 0 .4.1.5.1.3.2.7.1 1 .2.1 0 0 .2.1.2h.7c.1 0 .2.2.2.2.5 0 .9 0 1.4-.2.9.2 1.9.2 2.8 0 .2-.2.7-.3 1.1-.6 0-.1.2 0 .2 0 .1-.2.3-.3.4-.6.2 0 .3-.1.5-.2l.6-.4c.2-.2.2-.6.6-.6.2-.3.2-.4.4-.5.2-.7.6-1.1.6-1.8 0-.2.1-.2.2-.3-.1-.7.1-1.4 0-2 0-.2.2-.2.2-.2-.2-.2-.2-.3-.2-.5.1-.2.1-.3.2-.4.1-.7.1-1.4 0-2.1 0-.1.2-.1.2-.2v-.9c0-.1-.2-.1-.1-.2s.2-.5.2-.7c.3-.2.2-.7.3-1 0-.1 0-.1-.1-.1.5-.5 0-1.2.4-1.6 0-.5-.2-.7-.2-1 .2-.3.3-.5.2-.9.3-.2.3-.7.3-1.2.2-.3.2-.6.1-.9.3-.9.4-1.8.2-2.8 0-.1.2-.1.2-.2s-.2-.1-.2-.2c.3-.4 0-.8.2-1.1-.2-.9-.3-1.8-.3-2.8-.1-.5-.2-1.1-.2-1.6-.1-.1-.2-.2-.2-.3 0-.6-.4-1-.2-1.5 0-.2-.2-.2-.2-.2-.1-.7-.2-1.4-.4-2 0-.3-.1-.6-.2-.9 0-.2.1-.2.1-.4l-.2-.5c-.2-.2.1-.7-.2-1.1.1-.4-.3-.6-.4-1-.1-.1.1-.2-.1-.3 0-.2-.3 0-.3-.2.2-.7.2-1.5-.2-2.1v-.2c0-.1-.2 0-.2-.2v-1c0-.2-.2-.5-.2-.8-.4-.4-.6-.9-.5-1.5-.2-.3-.4-.6-.3-.9 0-.2-.1-.4-.2-.6 0-.4-.1-.8-.3-1.1 0-.3 0-.7-.1-.7v-.2c.1-.3.1-.7.1-1 0-.4 0-.7-.1-1.1.1-.1.1-.2.1-.3-.1-.2-.1-.1-.1-.3-.2-.4-.1-.8-.1-1.3.1-.7.1-1.5-.2-2.2 0-.1-.1-.1-.1-.2v-.5c0-.1 0-.2.1-.2 0-.1-.1 0-.1-.1.2-.4.1-.7.1-.9.1-.3.2-.7.2-1 .3-.5.3-1.1 0-1.6 0 0 0-.1-.1-.1-.1-.8-.1-1.7 0-2.5.1 0 .1-.2.2-.2 0-.7.4-.9.4-1.4.1-.1.1-.2.2-.4 0-.2.1-.4.2-.6.2-.2.2-.4.2-.6h.1s-.1-.1 0-.1c0-.2.1-.4.2-.5 0-.6.3-1.1.7-1.5.1.2.3.4.5.6 0 .2.3.3.3.7.2.1.3.4.5.6.3.5.6 1 .8 1.5.2.1.3.3.4.5.3.9.7 1.7 1.2 2.5.4.8.9 1.7 1.4 2.4-.2.2 0 .2 0 .3.2.2.2.6.3.7 0 .2.1.2.1.5l.1.1c.5.7.6 1.4 1.1 2.1.2.2.4.5.5.8 0 .1.1.2.1.2 0 .2.1.2.1.3s.1.1.2.2c.1.3.2.8.5.9v.1c0 .2.1.3.2.4.2.7.5 1.4.9 2l.2.4c0 .2.2.2.2.4l.2.2s.2.2.2.3c.2.3.3.7.6.8 0 .3.2.6.4.8.1.2.1.4.1.6l.4.3c.1.2.1.5.2.7.4.2.4.8.7 1-.2 0-.2.1-.2.2.2 0 .2-.1.2-.2"/></g></g><path class="st0" d="M273.4 31.9c.1-.4-.3-.4-.3-.9-.2 0-.4-.1-.6-.2h-.3c-.3-.2-.6-.3-.9-.3-.2-.2-.6 0-.7.1h-1.5c-.1 0-.1-.1-.2-.1h-.5c-.2-.2 0 .1-.2.1h-.6c-.3.1-.7.2-1 .3-.6.1-1.2-.2-1.7 0-.2.1-.6.1-.7.2-.5.5-1 .8-1.6 1-.1.4-.5.4-.6.7-.1 0-.1.1-.3.1-.1.3-.3.6-.3.8-.2 0-.2.2-.3.2-.2.4-.5.8-.8 1.1-.2.4-.6.6-.6 1.1-.5.3-.5 1.1-.9 1.5-.1.3-.2.7-.3 1l-.2.2c-.2.9-.9 1.6-.8 2.6-.1.1-.1.2-.2.2-.1.5-.2 1.1-.4 1.5 0 .6-.4.9-.4 1.4-.2.6-.2 1.5-.7 1.8.1.4-.1.7 0 1-.2.1-.2.4-.2.7-.1 0-.1.2-.2.2-.1.3 0 .6-.1.9 0 .1-.2.2-.2.4-.2.2 0 .4-.2.6 0 .2 0 .3-.2.4-.1.3 0 .7-.2.9 0 1-.3 1.6-.3 2.5-.3.2-.3.7-.3 1.1-.1.1 0 .2-.2.3 0 .5 0 1-.1 1.5-.1 0-.1.1-.1.2-.1.4 0 .9-.1 1.4l-.1.1-.2 1.8v.5c0 .2-.2 0-.2.2-.1 1 0 2-.2 2.8-.1.2.1.1.1.2s-.1.1-.1.2c-.1.5-.2 1-.2 1.5v.7s-.1 0-.1.1c0 .8-.1 1.6-.2 2.4-.2.6 0 1.4-.1 2 0 .1-.2.2-.2.4s-.2.1-.2.2c-.1.3 0 .6-.1.9s0 .4-.1.6c-.1.4-.1.8-.1 1.2 0 .2-.1.3-.2.5 0 .4-.1.8-.2 1.2v.1c-.2.5-.2 1-.2 1.5l-.2.1c0 .3-.1.6-.2.8 0 .1.1.2 0 .3s.1 0 0 .2-.1.1-.2.2c0 .3-.2.4-.4.6.2.7-.2 1.4.1 2 .2.2.3.5.6.7 0 .3.3.3.3.7.5.2.6.7 1.4.6.1.4.7.2.7.7.3 0 .6 0 .9.1.1 0 0 .1.1.1h.4c.3 0 .6.1.8.2h.9c.2.3.6.3.7.6.5 0 .9-.2 1.2-.6.6.1 1.2 0 1.8-.1 0-.1.2-.1.3-.2h.2l.6-.5h.2c0-.2.2-.2.3-.2.2-.1.1-.2.2-.2.1-.1.3-.2.3-.3.1-.1.1-.2.2-.4s.2-.3.3-.4c0-.2.2-.3.3-.4.1-.6 0-.9.1-1.4 0-.1.1-.2.1-.2v-.2s.1-.4.1-.5c0-.1 0-.2-.1-.2v-.8l.2-1.4c.1-.5 0-.9.1-1.5 0-.2.3-.2.2-.5-.3-.4-.2-1.1-.2-1.5v-.3c0-.3.2-.7 0-.9.1-.7.1-1.3 0-2 .2-.2.1-.6.1-.9 0-.1.2-.1.2-.2s.2-.6 0-.8c0-.2-.2-.6-.2-.8s.2-.4.2-.7v-.2c-.2-.2-.2-1-.2-1.3.5-.2.2-.9.5-1.4 0-.2-.1-.2 0-.5.1-.2-.2-.2-.1-.3.2-.3.2-.8.2-1.4.1-.1.2-.1.2-.3s0-.8.2-.9c-.1-.1-.1-.3-.1-.6.2-.4.2-1.1.7-1.4-.1-1.2.5-1.6.5-2.6.4 0 .3-.2.5-.2.1-.4.1-.7.2-.7s0-.1.1-.2.1-.2.4-.5v-.3l.1-.1c.1-.2.1-.7.2-.8 0-.2.1-.2 0-.2.2-.2.2-.7.3-.8.4.3.2 1 .3 1.4v2.2c0 .1.2.1.1.2.1.1 0 .2-.1.2 0 0 .1 0 .1.1h-.1c-.2.4.2.4 0 .5.1.1.1.1.1.2v1.5c0 1.2.2 2.4.2 3.6 0 .1.1 0 .1.1v1.5c0 .1.1.2.1.3v.3c0 .2 0 .4.1.6.2.4.1 1.1.2 1.6 0 0 .1 0 .1.1.1.4.2.8.2 1.1.1.4.2.8.2 1.2.1.3.2.5.2.8 0 .1.1.1.1.2.4.7.6 1.5.7 2.4.2.2.4.4.5.7l.6.5c.2-.2.3.1.5.1 0 .2.2.3.3.4.1.1.4.2.6.2.2 0 .4 0 .7.1.2.2.3.2.5.2s.1.2.2.2.3 0 .3.1l.1-.2c.1 0 .3 0 .4.2.1.2.3.2.4.2 0 .2.3.2.6.3.3.1 1.1-.1 1.4 0 .3-.4.7-.7 1.1-.9.4-.1.7-.1.7-.2l.2-.3c.2-.1.3-.1.3-.2.2.2.2 0 .3 0 .4-.2.8-.5 1.1-.7.2 0 .2.1.3.1.2-.4.8-.5 1-.7.2-.2.3-.5.5-.6.2-.1.2-.2.5-.2s0-.2.2-.2.2-.4.6-.5c.3-.1.5-.5.8-.6.3-1 1.3-1.7 1.2-3 .1 0 .1-.2.2-.2.1-.5.7-.6.6-1.3.2-.1.1-.2.2-.4.1-.3.4-.3.4-.5s0-.3.1-.5l.1-.2c.1-.3.1-.3.2-.4 0-.2.1-.4.2-.6 0-.4.1-.6.3-.7 0-.2.1-.2.1-.3.2 0 0-.3.2-.3 0-.7.4-1.1.7-1.5v-.3c.1-.1.1-.2.2-.4 0-.7.4-1 .6-1.5 0-.1.2-.1.2-.2 0-.4.2-.6.2-1.1.2-.2.3-.5.2-.7.4-.1.5-.4.6-.9.2 0 .2-.2.3-.2.1-.1.2-.2.2-.3.2-.2.4-.5.6-.7.2-.6.7-.9.7-1.6.3-.2.6-.8 1.1-1.1-.1-.2 0-.3 0-.4.4-.2.6-.6.5-1 .3.1.2-.3.5-.3.4.5.2 1.7.5 2.4-.1.6-.1 1.2-.1 1.8 0 .1.1.1.1.2v4.8c0 .8 0 1.6.1 2.4.2.2-.1.2-.1.2l.1.2c.2.2 0 .6.2 1 0 1 0 2.1.1 3.2 0 0 .1 0 .1.1 0 .7.2 1.5.2 2.2.2.3.1 1.1.3 1.6v.8c.1.1.2.3.3.3.1.3 0 .8.2 1 0 .2-.2 0-.2.2.2.1.2.2.2.3s-.2.1-.2.2c.2.5.2 1 .3 1.5 0 0-.1 0-.1.2.2.2.2.7.4.9l-.2.3c.1.2.2.5.2.7.3.6.5 1.3.6 2 .3.2.9.4 1.1.7l.2.5c.1.2.5 0 .6.2 0 0 0 .1.1.1 0 .1.1 0 .1 0 .2.1.2.2.3.3.1.1.3.1.4.1.1.3.5.5.8.5.2.2.3.5.7.3.1.3.5.2.6.6.4 0 .4.3.8.2.3-.4.6-.6 1.1-.7.1-.2.2-.2.3-.3.4 0 .5-.5.9-.5.3.1.6.1.9 0 .2-.4.7-.7 1.1-.7-.1-.2.1-.2.1-.3s.1-.6.1-.8h.1c.1-.3-.2-.5-.2-.7.2-.3.2-.6.2-.9.3-.1.5-.3.7-.5V76c-.1-.3-.2-.4-.2-.7-.5-.2-.3-.7-.3-1-.3-.2-.4-.7-.7-1 0-.2-.1-.3-.2-.4-.1-.3-.2-.6-.4-.8.1-.4-.1-.8-.4-1-.1-.2-.1-.4-.1-.7-.1 0-.1-.2-.2-.2v-.5c0-.1-.2-.3-.2-.4v-.2c0-.1-.1-.1-.1-.2v-.5c0-.1-.1-.1-.2-.2v-.6c0-.1-.2-.1-.2-.2s.2-.6.2-.8c-.3-.1-.2-.4-.2-.9 0-.1-.1-.2-.1-.2 0-.2.1-.7.1-.9s-.1-.2-.1-.4.1-.3.1-.5c0-.5 0-.9-.1-1.4v-1.8-1c-.1-.5 0-1 .2-1.5 0-.2-.2-.6-.2-.8s.2-.2.2-.4-.1-.6-.2-.8c.1-.2.2-.2.3-.3 0-.2-.2-.2-.2-.5 0-1 .2-1.5.2-2.8.2-.4-.2-1-.3-1.2 0-.2.2-.4.2-.5 0-.3-.1-.3-.1-.5 0-.4 0-.8.1-1.2-.2-.6-.2-1.2-.2-1.9-.3-.5-.2-1.1-.2-1.7-.2-.1-.2-.1-.2-.2s-.1-.7-.1-1c0-.2 0-.4-.1-.6-.1-.1-.2-.3-.2-.5-.2-.2-.2-.9-.6-1.1.2-.2.2-.2 0-.3 0-.1-.2-.1-.2-.2v-.3c-.2-.1-.3-.4-.4-.5-.1-.1-.1-.2-.1-.3-.2-.1-.2-.6-.4-.7 0-.1-.2-.2-.2-.3-.2-.3-.2-.9-.6-1.1 0-.2 0-.4-.1-.6-.2-.2-.4-.5-.5-.7-.2-.3-.3-.6-.6-.8-.2-.2-.3-.5-.4-.7-.2-.1-.5-.2-.6-.5-.2-.2-.3-.4-.6-.6-.3-.1-.6-.3-.8-.5-.4 0-.7 0-1-.2-.3.2-.6.2-.9.2-.3-.2-.6-.3-.9-.3-.1 0-.2 0-.2-.1-1-.1-1.9 0-2.9.2-.5.3-1 .5-1.5.7-.7.2-1.4.5-2 .9-.1.2-.2.2-.4.4s-.6.3-.8.6c-.1.2-.3.4-.6.4 0 .2-.2.2-.2.2-.1.2-.2.4-.4.6-.3.2-.5.7-.7.7 0 .3-.2.3-.3.6-.2.2-.4.5-.5.8-.5.2-.7 1-1.1 1.5 0 .2-.2.2-.2.3-.3.1-.5.2-.5.7-.5.2-.7 1-1.1 1.3-.3.7-.8 1-1.1 1.7h-.2c0 .2-.3.2-.3.6-.5.6-.7 1.4-1.4 1.9 0 .2-.2.2-.1.4-.2 0-.2.3-.5.3-.2-.4-.2-.9 0-1.4-.3-.3-.2-1.1-.4-1.5.2-.1.1-.2.1-.4s.1-.3.1-.4c0-.5 0-.9-.2-1.4v-.8c.1-.2.1-.1 0-.2v-1.3c-.3-.2-.2-.4-.2-.7 0-.7-.5-1.3-.5-1.7 0-.1-.1 0-.2-.1 0-.3 0-.6-.2-.8-.1-.2 0-.7-.1-.8-.2-.3-.2-.4-.2-.7-.3-.2-.3-.3-.4-.7-.2 0-.2-.2-.2-.4-.2 0-.1-.1-.2-.2 0-.1-.1-.2-.2-.2 0 0 0-.2-.1-.2s-.4-.2-.4-.2c-.1-.2 0-.2 0-.2s-.2-.1-.2-.2c-.2-.2-.2-.5-.7-.5-.1-.7-.6-.8-1.1-1.3-.1 0 0 .3-.2.2.5-.3.3-.4.1-.3"/><defs><path id="SVGID_1_" d="M161.2.1h36.3v32.6h-36.3z"/></defs><clipPath id="SVGID_2_"><use xlink:href="#SVGID_1_" overflow="visible"/></clipPath><g class="st1"><path class="st2" d="M166.4 22.8c-.5.9-1.6 1.2-2.2 2-.3.5-1 1.9 0 1.7.8-.3 1.6-.8 2.2-1.5.6-.8 1.2-1.5 1.9-2.1 1.5-.7 3-1.4 4.6-1.9 2.3-1 4.1-1.9 6.3-2.9 0 1.8 0 3.1.1 4.8.2.9.1 1.9-.2 2.8-.4.7-.8 1.3-1.3 1.8s-2.9 2.9-1.2 3.3c.8.2 2.6-2.6 3.1-3.1-.1.8-1.2 4.7-.7 5 1 .5 2-3.1 2.2-3.8.3.6 1.1 2.7 2.2 2.5 1.5-.2-.4-2.9-.7-3.3-1-1.7-.8-2.9-.8-4.8s.2-3.4.2-5.3c1.5.9 2.7 1.7 4.1 2.6 1.4.8 2.6 1.8 3.6 3 .6 1.1.2 4 2 4.8 1.5.7.9-2.7.7-3.3.7.5 2.6 2.4 3.3 1.4s-1.6-3-2.2-3.5c.6 0 3.8-.5 2.3-1.5-.9-.7-3.2.4-4.4-.2-1.6-1.1-2.4-2.2-3.8-3s-2.4-1.5-4-2.4c2-1.1 2.9-2 4.8-3.1l2.2-1.3c1.4-.8 1.4-.9 2.8-.2.7.4 3.5 2.1 4 .7.4-1.2-3.1-2-3.8-2.3.8-.5 3.6-1.4 2.9-2.8s-3 .6-3.8 1.1c0-.5 1.1-3.2-.1-3.1s-1.5 2.9-1.9 3.6c-.4.5-.9.9-1.5 1.1l-2.3 1.3c-1.8 1-3.2 1.8-5.1 2.7 0-1.3-.1-2.6-.3-3.9s-.8-3.1-.6-4.3c.1-.9 2.3-2.5 2.1-3.5-.4-1.9-2.1.6-2.6 1.2-.3-1-.8-1.9-1.5-2.7-.4-.4-1.2-.6-1.2.3 0 .8.1 1.5.2 2.3-.3-.3-3.5-3.4-3.9-2.3-.3.9 3.4 3.5 3.9 4.2 1.5 2.2 1.4 6.5 1.5 9.1-1.9-1.1-3.8-2-5.8-2.8-2-.7-4-1.6-5.9-2.6-1.3-.7.1-2.7-2.6-3.4-2.3-.6-.1 2.7.2 3.3-.6-.2-1.2-.6-1.8-.8-.2 0-1.2.4-1.1.5 1 .9 2.1 1.6 3.4 2.1-.8.1-5.4.3-4.3 1.3s4.4.2 5.5.1c.5-.1.4-.2 1-.2.4.1.8.3 1.2.5.9.4 1.9.8 2.8 1.1 2 .7 3.9 1.6 5.8 2.6-2 1-3.4 1.7-5.4 2.6-1.5.7-3.1 1.3-4.8 1.7-1.6.3-2.5-1.1-3.8-2-.9-.7-1.3-.6-.7.6.6 1 1.4 1.8 2.4 2.5-1.6.5-4.7 1-4.4 2.2s4.2-.3 5.2-.5"/><path class="st2" d="M171.7 16.2c-.1-2.9-4.7-2.7-4.6.2s4.7 2.7 4.6-.2M175 26.7c1.3-.1 2.2-1.1 2.2-2.4 0-.7-.4-1.3-.9-1.7-3.2-2.1-4.6 4-1.3 4.1M183.5 24c0 2.1 3.8 1.9 3.1-.1-.8-2.6-3.1-2-3.1.1M189.5 15.9c.1 4 6.4 1.6 4.7-1.3-1.1-1.9-4.7-1-4.7 1.3M176.8 8.6c.3-2.1-3.3-2.5-3.3-.6s3 2.9 3.3.6M182.8 7.3c0 2.3 3.1 2 3.4-.1.3-2.4-3.4-2.1-3.4.1"/></g><defs><path id="SVGID_3_" d="M301.8 23.8h38.1v32h-38.1z"/></defs><clipPath id="SVGID_4_"><use xlink:href="#SVGID_3_" overflow="visible"/></clipPath><path class="st3 st2" d="M326.9 49.9c.8.6 2.8 2.3 1.6 3.4-1.5 1.4-1.5-2.7-1.6-3.4m-11.4-21.1c-1.9-.6-2.4-1.5-1.4-3 1.5 1 1.1 1.4 1.4 3m-2.1 25.4c-.5-1.3-.2-2 1.7-3.4 0 2.1-.6 3.3-1.7 3.4m-9-15.8c-.6-.2-1.4-.7-1-1.4.6-1.3 3.5.4 4.3.8-.9.7-2.1.9-3.3.6m23.9-12.8c.8.8-.2 1.9-1 2.2-.1-.8.2-3.1 1-2.2m6.5 15c.7 0 3.5-.9 2.5 1-.6 1.3-2.6-.2-2.5-1m-.8 5.2c2.1-.2-2.1-4.1-1.7-4.6.2-.3 2.7 2.7 5.4 2.8 1.4.1 3.1-1.9 1.8-3.2-2.1-2-3.7-1.5-5-1.5.5-.8 3.8-1.2 2.1-2.2-2-1.4-3.2 2.1-4.5 2-.6 0-1.2-.1-1.8-.2-1-.3 3.4-2 1.7-2.4-2.2-.5-3.4 1.9-5.2 1.9-1.4.1-2.9-.1-4.2-.6.3-.6.6-1.2.9-1.9.3-.9.8-1.6 1.6-2.2.8-.6 5.9 1 5.5-.9 0-.9-2.9-.6-4-1 .5-1.2.2-1.1 1.5-1.3.5 0 4 1.5 3.4-.9-.3-1.3-3 .1-3.5-.6.8-.8 3.5-4.6 1-5.3-2.1-.6-2.4 3-2.6 4.1-.7-.5-1.2-2.9-2.2-2.5-1.3 1.1 2.1 3.7.6 5.3-.3-.8-1-2.9-1.8-2.3-1.3 1 .4 2.1.5 4-.5 2-1.4 3-2.5 4.7-.5-.7-1-1.4-1.4-2.2-.2-1.2 1.5-2.4.1-4.3-.6-.8-1.1 1.5-1.4 2.4-.6-.8-.5-.7-.4-1.6.1-.9 1.4-1.8.8-3.4-.8-1.8-1.3 1.2-1.5 1.8-.3-1 .1-5.5-3.1-5.3-1.2.1-1.5 2.7-1.2 3.5.4 1.3 1.9 1.7 2.9 2.5-.2.4-3.9-.8-3.5.4.8 2.2 4.9-.2 5 2.6-1 0-3.5-1.1-3 .2.8 2.1 2.7 1 3.6 1.9.6.6 1.1 1.3 1.3 2.1-1.5.1-2.9 0-4.3-.3-1.3-.4-.6-2.2-2.4-2.2-1.9-.1-.2 1.2.3 1.9-1 .2-1.6-.6-2.2-1.4-.5-.7.2-3.6-2-3.2s.6 3.3.7 3.9c-1.3-.5-7.4-3.7-7.1 1 .3 4.7 6 1.9 7.5 1.4-.1.8-1.6 2-.2 2.7s2.2-1.1 2.1-2.6c.8.1 1.9-.5 1.9.7 0 .7-2.5 2.2-1.3 2.8s3-1.6 2.8-3.3c1.5.3 5 .4 4.9.6s-1.1 1.6-1.4 2.1c-.7 1.3-.9 1-1.6 1.4-.9.3-3.6.5-4.4 2.2s2.8 0 3.8-.1c-.2 2.3-5.3 1.1-5.8 4-.4 2.2 3.1-.5 4.2-.1-1.4.8-5.4 4.7-1.4 6.2s3.1-3.1 3.5-4.8c1 1 1.8 3.5 3.4 1.5 1.6-2-3.8-3.5-2.3-6.1 1 .8 2.7 4 3.2 2.3.3-1.1-.1-2.2-.9-3-.5-.5-.7-1.2-.5-1.8.1-.7 1.2-1.6 1.8-2.5.8 1.2 1.4 2.5 1.9 3.9.3 1.5-1.9 1.9-.9 3.5s2.2-3.1 2.9-1.2c.5 1.6-2 2-1.2 3.8.8 1.8 1.5-1.3 1.8-1.7.2 1.4-.5 6.7 3.6 5.1s-1-4.9-1.8-6c1 .1 3.8 2.1 3.2.4-.6-1.7-3.7-1-4.4-2.8 1.1.2 3.1 1.3 2.6-.1-.5-1.4-3-.8-4-2-1.1-1.2-2-2.7-2.4-4.3 1.2 0 2.4.2 3.6.5.6 0 1.2 4.3 2.9 3.6 1.7-.2 0-3-.2-3.5.8.1.8-.2 1.3.2.2.2.6 1.5.9 1.9.9 1.2 1.1 3.6 3.2 3.3"/><path class="st4" d="M259.9 42.5c-.1.1-.2.1-.3.2"/><path class="st5" d="M260.3 42.3l-.4.2c.2-.1.3-.1.4-.2z"/><path class="st4" d="M259.6 42.6c-.4.2-.7.3-1.1.3"/><path class="st5" d="M277.8 36.2c-1.5-2.7-1.9-4.3-4.1-5.6-.9.2-1.6.5-2.2.8-2.2.7-4.2 1.6-6.2 2.7-2 1.5-3.2 5.5-5 8.1 2.5-1.5 4.5-4.9 4.7-5.2.8-1 1.9-1.5 3.1-1.6 1 0 1.9.4 2.5 1.2.8 1.2.4 4.3 1.7 4.3.2 0 .5-.2.7 0 .4.2.6.2.6.1.6-.5.8-2.5 1.2-2.5.7 0 1.2 1.1 2 .9.8-.2 1.4-.9 1.4-1.8.1-.4-.1-.9-.4-1.4zM273.5 30.6l.1.1-.1-.1z"/><path class="st4" d="M271.3 29.4c.7.4 1.5.8 2.3 1.2"/><path class="st5" d="M268.3 28.5c-1.4.1-2.8.4-4.1 1-1.4.7-2.7 1.6-3.7 2.8-.1.1-.2.1-.3.2-.9.7-1.7 1.5-2.4 2.3-.9 1.1-1.8 2.4-2.6 3.6l-.2.3c-.3.5-.5 1.1-.5 1.7 0 1.4 1.1 2.6 3.6 2.6h.4c.7-.1 1.3-.3 1.8-.7 1.8-2.6 2.9-6.7 5-8.2 2-1.1 4-2 6.2-2.7.6-.2 1.4-.5 2.2-.8-.9-.5-1.7-.9-2.4-1.3h-.1c-.8-.5-1.8-.7-2.7-.7M192 37.4c-2.8 1.6-6.9 6.7-8.9 9.2-1.8 2.2-3.5 4.4-4.2 6.6v.1c-.3 2.1 1.6 6.8 5.1 6.8.8 0 1.5-.3 2.1-.7 4.8-3.2 6-9.2 6.2-11.1s2.4-3.5 4.6-4c1-.2 5.5-3.8 4.9-5.5-.3-1-3.9-1.7-4-1.8l-2.6-.4c-1.1.2-2.2.4-3.2.8zM67.2 62c.5.4 1.2.2 2.5-.8 4.3-3.6 3.3-9.8 7.5-6.8.1.1.2.2.4.3 1.2 1 1.5 2.9 1.9 4.1s.2 2.6.7 3 1.5 1.2 3.3-.6c2.3-2.3 1.5-13.5-3.5-17.6-.6-.5-1.2-.9-1.9-1.3l-.1-.1c-.7-.4-1.5-.6-2.2-.8-1.6-.3-3.3.2-4.3 1.5-1.5 1.7-2.5 4.7-3.2 8.2C67 56.3 66.1 61 67.2 62"/><g><defs><path id="SVGID_5_" d="M24.1 74.9h33.6v28.2H24.1z"/></defs><clipPath id="SVGID_6_"><use xlink:href="#SVGID_5_" overflow="visible"/></clipPath><path class="st6 st2" d="M46.2 97.9c.7.5 2.5 2 1.4 3-1.3 1.2-1.3-2.4-1.4-3m-10-18.6c-1.7-.5-2.1-1.3-1.2-2.6 1.3.9.9 1.3 1.2 2.6m-1.9 22.4c-.5-1.2-.2-1.7 1.5-3 0 1.9-.5 2.9-1.5 3m-7.9-13.9c-.5-.2-1.2-.6-.9-1.2.5-1.1 3.1.4 3.8.7-.8.6-1.9.8-2.9.5m21-11.3c.7.7-.2 1.7-.9 1.9-.1-.6.1-2.7.9-1.9m5.7 13.2c.6 0 3.1-.8 2.2.9-.5 1.1-2.3-.2-2.2-.9m-.7 4.6c1.9-.2-1.9-3.6-1.5-4.1.2-.3 2.4 2.3 4.8 2.5 1.3 0 2.7-1.7 1.5-2.8-1.8-1.7-3.3-1.4-4.4-1.3.4-.7 3.4-1.1 1.9-1.9-1.8-1.2-2.8 1.9-4 1.7-.5 0-1-.1-1.5-.1-.9-.3 3-1.8 1.5-2.1-1.9-.4-3 1.7-4.6 1.7-1.3.1-2.5-.1-3.7-.6.3-.5.5-1.1.8-1.7.2-.8.7-1.5 1.4-2s5.2.9 4.8-.8c0-.8-2.5-.6-3.6-.8.5-1.1.2-1 1.3-1.1.5 0 3.6 1.3 3-.8-.3-1.2-2.6 0-3.1-.5.7-.8 3.1-4 .9-4.6-1.9-.5-2.1 2.6-2.3 3.6-.6-.4-1-2.5-2-2.2-1.1 1 1.9 3.3.6 4.7-.2-.7-.9-2.6-1.6-2-1.1.9.4 1.8.5 3.5-.5 1.5-1.2 2.9-2.2 4.2-.4-.6-.8-1.2-1.2-1.9-.2-1.1 1.3-2.1.1-3.8-.5-.7-1 1.3-1.2 2.1-.5-.7-.4-.6-.3-1.4s1.2-1.5.7-3c-.7-1.6-1.1 1.1-1.4 1.6-.2-.8.1-4.9-2.7-4.7-1 .1-1.3 2.4-1.1 3.1.4 1.2 1.7 1.5 2.5 2.2-.2.3-3.5-.7-3.1.4.7 1.9 4.3-.2 4.4 2.3-.9 0-3.1-.9-2.7.2.7 1.8 2.4.9 3.2 1.7.5.5 1 1.1 1.2 1.8-1.3.1-2.6 0-3.8-.3-1.1-.4-.5-1.9-2.1-2s-.1 1.1.2 1.7c-.9.2-1.4-.5-2-1.2s.2-3.1-1.8-2.8.5 2.9.6 3.5c-1.1-.4-6.5-3.3-6.3.8s5.3 1.7 6.6 1.3c-.1.8-1.4 1.8-.1 2.3s2-1 1.9-2.3c.7.1 1.6-.4 1.6.6 0 .6-2.2 2-1.1 2.5s2.7-1.4 2.5-2.9c1.3.2 4.4.4 4.4.6s-.9 1.4-1.2 1.9c-.6 1.1-.8.9-1.4 1.2-.8.3-3.1.5-3.8 1.9s2.4 0 3.3-.1c-.2 2.1-4.7 1-5.1 3.5-.3 1.9 2.7-.4 3.7-.1-1.3.7-4.7 4.2-1.2 5.5s2.7-2.7 3.1-4.2c.9.9 1.6 3.1 3 1.3S37 97 38.2 94.7c.9.7 2.4 3.5 2.8 2.1.3-1-.1-2-.8-2.6-.4-.4-.6-1-.4-1.6.1-.6 1.1-1.4 1.5-2.2.7 1.1 1.2 2.2 1.7 3.4.2 1.3-1.6 1.6-.8 3.1s2-2.8 2.6-1.1c.5 1.4-1.8 1.8-1 3.3s1.3-1.2 1.6-1.5c.2 1.3-.5 5.9 3.2 4.5s-.9-4.3-1.6-5.2c.9.1 3.3 1.9 2.8.3s-3.2-.8-3.9-2.5c1 .2 2.7 1.1 2.3-.1s-2.6-.7-3.5-1.8c-1-1.1-1.7-2.4-2.1-3.8 1.1 0 2.1.2 3.1.5.5 0 1.1 3.8 2.6 3.2 1.5-.2 0-2.7-.2-3.1.7.1.7-.2 1.1.2.2.2.5 1.3.8 1.7.3.7.5 2.9 2.4 2.8"/></g><g id="Group_12898-2"><g id="Group_12876-2"><g id="Group_12874-2"><path id="Path_30661-2" class="st7" d="M168.1 82.7c.4 1.2 2.1 15.5-2.6 20.9l7.2-.5 4.6 4.5c1-2.9 1.6-5.9 1.8-9 0-3.8-2.8-16.5-1.5-18.7s-9.5 2.8-9.5 2.8z"/><path id="Path_30662-2" class="st0" d="M177.6 108.3l-5-4.8-8.1.5.7-.8c4.5-5.2 3-19.2 2.5-20.5l-.1-.4.4-.2s2.3-1 4.6-1.9c4.6-1.8 5.2-1.6 5.6-1.2.2.3.2.7 0 .9-.7 1.2.1 7 .8 11.3.4 2.4.7 4.7.8 7.1-.2 3.1-.8 6.2-1.8 9.1l-.4.9zm-11.2-5.2l6.5-.4 4.3 4.1c.9-2.7 1.4-5.4 1.6-8.2-.1-2.3-.4-4.7-.8-7-.9-6-1.4-10.3-.7-11.8-1.1 0-5.1 1.6-8.7 3.2.6 2.5 1.6 14.4-2.2 20.1z"/></g><g id="Group_12875-2"><path id="Path_30663-2" class="st7" d="M178.8 79.6c.1.2 2.6 9 5.9 13.3s6.3 6.9 8.6 7.5l.8-6.5 5.8-3.5s-8.1-2.1-12.3-8.6-8.8-2.2-8.8-2.2z"/><path id="Path_30664-2" class="st0" d="M193.7 101l-.5-.1c-2.4-.7-5.3-3.2-8.8-7.7-3-3.9-5.4-11.2-6-13.4l-.1-.3.2-.2c1.2-1.1 2.8-1.6 4.4-1.4 1.9.2 3.6 1.5 5.1 3.8 4.1 6.3 12 8.4 12.1 8.5l1 .3-6.5 3.9-.9 6.6zm-14.4-21.2c.7 2.3 2.9 9.3 5.8 12.9 3.1 3.9 5.8 6.4 7.9 7.2l.7-6.1 5.1-3.1c-2.3-.8-8.2-3.2-11.6-8.5-1.3-2.1-2.8-3.2-4.4-3.4-1.3-.2-2.5.2-3.5 1z"/></g></g><g id="Group_12877-2"><path id="Path_30665-2" class="st4" d="M168.7 92.3c-.2 4.2-1 8.7-3.2 11.3l7.2-.5 4.6 4.4c1-2.9 1.6-5.9 1.8-9 0-2.7-1.3-9.5-1.7-14.2-2.5 3-5.4 5.7-8.7 8z"/><path id="Path_30666-2" class="st4" d="M168.1 82.7c.2.7.3 1.5.3 2.2 1.5-1.3 2.8-2.6 4.1-4.1-2.2.9-4.4 1.9-4.4 1.9z"/><path id="Path_30667-2" class="st8" d="M177.8 79.9c.7-1.2-2.3-.2-5.2.9-1.3 1.5-2.6 2.8-4.1 4.1.3 2.5.3 4.9.2 7.4 3.3-2.3 6.2-5 8.8-8-.1-2.1-.1-3.8.3-4.4z"/></g><path id="Path_30668-2" class="st8" d="M191.5 87.3c.5.2 1.1.3 1.6.1-2.2-1.4-4.1-3.3-5.5-5.4-.4-.6-.9-1.2-1.4-1.7-.9-.1-1.9-.2-2.8-.4-.4-.1-.8-.3-1.1-.5-.2-.1-.3-.5-.2-.2-.1-.3-.2-.5-.3-.8-1.1.1-2.2.6-3 1.3 0 .1.6 2.1 1.6 4.7 1 .5 2.1.8 3.1 1 1.4.2 2.7.3 4 .6 1.4.2 2.8.7 4 1.3z"/><g id="Group_12878-2"><path id="Path_30669-2" class="st7" d="M174.1 74.4c-.2 0-9.9-6.7-13.8-7.6-1.8-.5-6.8.1-6.6 3.7s1.6 7.7 1.7 10.7-.2 6.4.3 8.4c.4 1.7 2.6 4.9 6.3 2.9S175.1 81 175.1 81l-1-6.6z"/><path id="Path_30670-2" class="st0" d="M160.1 93.5c-.6 0-1.2-.1-1.8-.3-1.4-.7-2.5-2-2.9-3.5-.3-1.7-.4-3.5-.3-5.2v-3.2c-.1-1.7-.4-3.4-.8-5-.4-1.9-.7-3.8-.9-5.7-.1-1.1.4-2.2 1.2-2.9 1.7-1.2 3.8-1.6 5.9-1.2 3.2.8 10.2 5.3 12.8 7l1 .6h.2l1.1 7-.2.2c-.4.4-9.5 9.5-13.1 11.5-.6.3-1.4.6-2.2.7zm-1.6-26.4c-1.2 0-2.4.4-3.4 1.2-.7.5-1 1.4-.9 2.2.2 1.9.5 3.7.9 5.5.4 1.7.7 3.4.8 5.1.1 1.1 0 2.2 0 3.3-.1 1.7 0 3.4.3 5 .4 1.3 1.2 2.3 2.4 2.9 1.1.4 2.3.3 3.2-.3 3.3-1.8 11.6-10 12.8-11.2l-1-6.1-.9-.6c-2.6-1.7-9.6-6.1-12.6-6.9-.5-.1-1.1-.1-1.6-.1z"/></g><g id="Group_12879-2"><path id="Path_30671-2" class="st7" d="M177.9 73.5c.2-.1 6.4-10.1 9.5-12.5 1.5-1.2 6.3-2.6 7.5.7s1.7 7.7 2.7 10.5 2.8 5.7 3.1 7.8c.3 1.7-.5 5.5-4.6 5.2S179.5 80 179.5 80l-1.6-6.5z"/><path id="Path_30672-2" class="st0" d="M197.1 85.5h-1c-4.1-.4-16.2-5.1-16.7-5.3l-.2-.1-1.8-6.9.2-.2c.1-.1.3-.5.6-1 1.7-2.6 6.4-9.6 8.9-11.6 1.7-1.2 3.8-1.7 5.8-1.2 1.1.3 1.9 1.1 2.3 2.2.6 1.8 1.1 3.7 1.4 5.6.3 1.7.7 3.3 1.3 4.9.4 1 .8 2 1.3 3 .8 1.6 1.4 3.2 1.9 4.9.2 1.6-.2 3.2-1.3 4.4-.7.9-1.7 1.3-2.7 1.3zm-17.2-6c1.6.6 12.5 4.8 16.2 5.1 1.1.2 2.3-.2 3.1-1 .8-1 1.2-2.4 1.1-3.7-.4-1.6-1-3.2-1.8-4.7-.4-1-.9-2-1.3-3-.6-1.6-1-3.3-1.3-5-.4-1.8-.8-3.7-1.4-5.4-.3-.8-.9-1.4-1.7-1.6-1.8-.3-3.6.1-5.1 1.1-2.5 1.9-7 8.8-8.7 11.4l-.6.9 1.5 5.9z"/></g><g id="Group_12882-2"><g id="Group_12880-2"><path id="Path_30673-2" class="st0" d="M173.9 77.2c-1.2-.6-2.6-.9-3.9-.8-1.4-.1-2.9.1-4.2.5-.5.1-1.2 1.2-.3 1.1 1.2-.2 2.5-.3 3.7-.3 1.4 0 2.9.3 4.3.2.1-.1.7-.5.4-.7z"/><path id="Path_30674-2" class="st0" d="M173.8 77.2c-2.4.5-4.5 1.9-5.9 3.8-.2.3-.2.6.2.7s.8-.3 1-.6c1.2-1.7 2.9-2.9 4.8-3.5.3-.1.3-.5-.1-.4z"/></g><g id="Group_12881-2"><path id="Path_30675-2" class="st0" d="M179.2 76.4c.9-.2 1.8-.7 2.7-1 .9-.3 1.9-.4 2.9-.5.6 0 1.4-1.5.6-1.4-2.3.2-4.5 1-6.4 2.4-.2.3-.1.6.2.5z"/><path id="Path_30676-2" class="st0" d="M179.1 76.6c.9 0 1.8-.1 2.7 0 1 .2 2 .5 2.9.9.7.2 1.7-1.2.9-1.6-2.1-.8-4.4-.8-6.4.2-.2.1-.5.4-.1.5z"/></g></g><g id="Group_12883-2"><path id="Path_30677-2" class="st7" d="M173.5 78.2c.1.7.3 2.2.9 2.8.9.7 2.3 0 3.4-.1 1.9-.1 2.7-.4 2.4-2.2s-.2-5.3-2.4-5.2c-3.3.3-4.9.7-4.8 1.9.2.9.3 1.9.5 2.8z"/><path id="Path_30678-2" class="st0" d="M175.5 81.7c-.5.1-1-.1-1.4-.4-.6-.7-.9-1.6-1-2.6 0-.1 0-.3-.1-.4-.2-1-.4-1.9-.4-2.9-.1-1.7 2.3-2.1 5.2-2.3 2.2-.2 2.5 2.6 2.7 4.4 0 .4.1.8.1 1.1.2.6.1 1.3-.3 1.9-.7.6-1.6.9-2.5.8-.4 0-.7.1-1.1.2-.3.1-.7.2-1.2.2zm2.4-7.8c-3.2.3-4.5.7-4.4 1.4.1.9.2 1.9.4 2.8 0 .1.1.3.1.5 0 .7.3 1.4.7 2 .4.4 1.2.2 2 0 .4-.1.8-.2 1.2-.2 1-.1 1.6-.2 1.9-.5.2-.4.2-.8.1-1.2-.1-.3-.1-.7-.1-1.2-.3-2.1-.6-3.7-1.9-3.6z"/></g></g></svg>